<svg fill="#6b728e" xmlns="http://www.w3.org/2000/svg"  viewBox="0 0 24 24" width="35px" height="35px"><path d="M 2 2 C 2 4.856 2.4537344 7.0244844 2.9277344 8.5214844 C 2.3377344 9.7334844 2 11.077 2 12.5 C 2 17.747 8 22 12 22 C 16 22 22 17.747 22 12.5 C 22 11.077 21.662266 9.7334844 21.072266 8.5214844 C 21.546266 7.0244844 22 4.856 22 2 C 19.456 2.424 17.637906 3.20675 16.378906 3.96875 C 15.054906 3.35475 13.573 3 12 3 C 10.427 3 8.9450937 3.35475 7.6210938 3.96875 C 6.3620937 3.20675 4.544 2.424 2 2 z M 4.140625 4.5722656 C 5.041625 4.8702656 5.8589375 5.2396875 6.5859375 5.6796875 L 7.4960938 6.2324219 L 8.4648438 5.7832031 C 9.5838437 5.2642031 10.773 5 12 5 C 13.227 5 14.417109 5.2642031 15.537109 5.7832031 L 16.503906 6.2324219 L 17.416016 5.6796875 C 18.142016 5.2396875 18.958375 4.8702656 19.859375 4.5722656 C 19.724375 5.7652656 19.492062 6.8820625 19.164062 7.9140625 L 18.923828 8.6777344 L 19.273438 9.3964844 C 19.756438 10.387484 20 11.431 20 12.5 C 20 16.495 15.014 20 12 20 C 8.986 20 4 16.495 4 12.5 C 4 11.431 4.2435625 10.387484 4.7265625 9.3964844 L 5.0761719 8.6777344 L 4.8359375 7.9160156 C 4.5079375 6.8830156 4.275625 5.7652656 4.140625 4.5722656 z M 7.5 10 C 6.5 10 6 10.375 6 10.375 C 6 10.375 6 13 8.5 13 C 9.5 13 10 12.625 10 12.625 C 10 12.625 10 10 7.5 10 z M 16.5 10 C 14 10 14 12.625 14 12.625 C 14 12.625 14.5 13 15.5 13 C 18 13 18 10.375 18 10.375 C 18 10.375 17.5 10 16.5 10 z M 10 15 C 10 16 12 17 12 17 C 12 17 14 16 14 15 L 12 15 L 10 15 z"/></svg>