<?xml version="1.0" encoding="utf-8"?>
<!-- Generator: Adobe Illustrator 27.1.1, SVG Export Plug-In . SVG Version: 6.00 Build 0)  -->
<svg version="1.1" id="Livello_1" xmlns="http://www.w3.org/2000/svg" xmlns:xlink="http://www.w3.org/1999/xlink" x="0px" y="0px"
	 viewBox="0 0 2083.5 1416.2" style="enable-background:new 0 0 2083.5 1416.2;" xml:space="preserve">
<style type="text/css">
	.st0{opacity:0.75;fill:#50577A;enable-background:new    ;}
	.st1{opacity:0.75;fill:#6B728E;enable-background:new    ;}
</style>
<g>
	<path class="st0" d="M2120.3-6.6V1382c-7.7-19.8-17.5-43.4-29.5-69.7c-80.7-176.9-263.7-479.1-607.2-599.2c0,0-0.1,0-0.1,0
		c-78.2-27.2-164.5-45.2-259.9-50c-88.5-4.5-167.8-15.2-239.9-30.9C492.8,525,340.4,184.9-36.8-6.6H2120.3z"/>
	<path class="st0" d="M2121.1,40.6v1382.2H-3.3c231.3-124.2,377.7-304.4,579.5-445.6c100.9-70.6,215.6-131.5,361.7-170.7
		c85.4-22.9,181.4-38.5,291.7-44.3c93.3-4.9,178-22.4,254.7-49.1c0.1,0,0.1,0,0.2-0.1c317.5-110.5,497.5-377.8,586.4-557.8
		C2093,110.3,2109.5,70.8,2121.1,40.6z"/>
</g>
<g>
	<path class="st1" d="M2121.1-6.6v1318.5c-7.5,0.2-17.5,0.3-29.5,0.4c-156.4,0.9-674-12-1058.9-207.6
		c-82.1-41.7-169.9-71.9-258.5-93.2c-66.1-15.9-132.8-26.9-198-34.2c-283.9-31.7-541.3,7-613.8,19.6V-6.6H2121.1z"/>
	<path class="st0" d="M2121.1-6.6v154.9c-11.8,1.5-28.9,3.8-50.3,7c-228.5,33.6-953.6,163.9-1086.3,476.8c-9.3,22-15.7,45-18.8,68.8
		c-4.9,37.8-14.4,72.9-27.9,105.6c-33.4,80.9-91.1,147.3-163.7,204.9C568.3,1175,243.1,1268.4,16.3,1422.8h-54V-6.6H2121.1z"/>
</g>
</svg>
