<?xml version="1.0" encoding="UTF-8"?>
<svg id="Livello_1" data-name="Livello 1" xmlns="http://www.w3.org/2000/svg" viewBox="0 0 857.01 1358.03">
  <defs>
    <style>
      .cls-1 {
        fill: #fff;
      }

      .cls-2 {
        fill: #6b728e;
      }

      .cls-3 {
        fill: #6b738e;
      }

      .cls-4 {
        fill: #219f94;
      }

      .cls-5 {
        fill: #404258;
      }

      .cls-6 {
        fill: #3e3e3e;
      }

      .cls-7 {
        fill: #50577a;
      }
    </style>
  </defs>
  <path class="cls-7" d="m587.49,205.66c-.65-3.37-1.54-6.69-2.24-10.05-.69-3.36-3.44-6.28-4.16-9.63-.72-3.36,1.31-7.29.6-10.64-.71-3.36-1.9-6.61-2.58-9.97-.68-3.37-2.71-6.48-3.33-9.84-.61-3.38-2.85-6.53-3.37-9.91-.52-3.39.36-7.04-.04-10.45s1.62-7.05,1.36-10.47c-.26-3.41-3.89-6.71-3.97-10.14-.08-3.42.6-6.97.72-10.41.12-3.4.16-6.96.52-10.39.35-3.38,5.99-6.03,6.58-9.43.58-3.34-.77-6.97.07-10.34.83-3.31-.55-7.44.71-10.76,1.22-3.21,2.46-6.65,4.05-9.81,1.55-3.07,5.5-4.92,7.37-7.9,1.84-2.93,1.4-7.58,3.53-10.36,2.12-2.76,7.8-2.56,10.16-5.12,2.37-2.57,1.26-8.72,3.85-11.03,2.61-2.34,5.62-4.65,8.43-6.68,2.84-2.06,6.91-2.6,9.92-4.31,3.06-1.73,5.79-4.61,9-5.93,3.25-1.32,7.5-.16,10.86-.99,3.39-.84,6.89-.76,10.37-1.05,3.72-.31,7.02,1.27,10.58,1.76,3.63.5,8.07-2.47,11.52-1.26,3.41,1.19,6.14,4.43,9.37,6.2,3.17,1.73,6.36,1.33,9.35,3.5,10.43,12.06,10.66,11.42,13.32,17.72,1.48,3.49,3.73,6.92,5.5,10.29,4.59,8.78,10.39,16.89,17.22,24.08,10.68,11.21,9.52,26.1,15.49,39.85,10.8,24.88,20.49,48.99,26.79,75.84,1.8,7.64,3.47,15.49,7.59,22.17,8.41,13.61,16.64,13.95,21.43,30.76,18.89,66.2-.92,143.92-7.49,211.62-.8,8.22-.93,18.03,5.73,22.92,4.04,2.97,9.51,3.16,13.87,5.64,8.91,5.07,10.05,17.22,10.14,27.46.36,42.15.64,84.94-10.54,125.59-6.34,23.04-16.33,45.31-18.52,69.09-.96,10.48-.38,21.06-1.34,31.55-2.69,29.42-17.18,56.23-27.98,83.73-10.57,26.97-17.72,55.16-21.29,83.9-2.01,15.66-2.89,31.44-2.64,47.23.32,16.52-.81,18.39-6.38,31.64-1.34,3.19.85,7.88-.53,11.05-1.39,3.16-2.37,6.54-3.81,9.69-1.43,3.14-4.03,5.77-5.51,8.9s-2.05,6.72-3.58,9.82-2.53,6.5-4.12,9.58-2.86,6.35-4.5,9.41c-1.63,3.05-7.47,3.81-9.15,6.83-1.75,3.1-2.26,6.91-4.08,9.99-1.81,3.07-3.73,6.09-5.62,9.13-1.89,3.04-2.89,6.65-4.86,9.64-1.97,2.99-6.59,4.14-8.65,7.06-2.07,2.93-3.39,6.31-5.56,9.15-2.18,2.85-4.02,5.89-6.31,8.64-2.3,2.75-2.58,7.29-5.01,9.91-2.44,2.64-4.02,6.27-6.59,8.76-2.58,2.5-7.22,2.86-9.94,5.19s-4.55,5.87-7.42,8.01c-2.87,2.13-6.41,3.47-9.44,5.4-3.01,1.91-6.49,3.13-9.67,4.82s-7.3,1.26-10.74,2.6c-3.39,1.32-6.02,4.82-9.56,5.76s-7.45-.11-11.05.39c-3.65.51-7.14,2.18-10.75,2.18s-7.27-.95-10.83-1.53c-3.65-.59-7.76.33-11.16-.92-3.43-1.27-7.76-1.86-10.83-3.86-3.01-1.97-3.51-7.36-6.06-10.09-2.3-2.49-4.52-4.82-6.26-7.68s-4.59-5.21-5.9-8.34c-1.29-3.08-3.14-6.14-4.13-9.36s-1.39-6.69-2.19-9.93c-.85-3.45.85-7.5.09-11-.76-3.46-3.65-6.51-4.31-10.03-.66-3.49-2.21-6.87-2.77-10.4-.57-3.5-2.37-6.9-2.85-10.45-.48-3.52,4.48-7.74,4.08-11.29-.4-3.53-3.06-6.81-3.38-10.38-.32-3.54-3.59-6.88-3.83-10.46-.24-3.54,2.6-7.31,2.42-10.88-.17-3.54.81-7.13.71-10.71-.1-3.55.4-7.1.37-10.67-.04-3.55-4.34-7.12-4.3-10.7.04-3.55,5.19-7.03,5.3-10.59.1-3.56-5.11-7.32-4.95-10.88.16-3.55,1.2-7.12,1.42-10.68.22-3.55,4.39-6.83,4.68-10.39.28-3.55-1.15-7.24-.81-10.79s-1.02-7.28-.62-10.83-.14-7.23.32-10.78c.45-3.54.24-7.21.76-10.74.52-3.54,6.85-6.17,7.41-9.69.57-3.53-4.4-8-3.78-11.5.62-3.52,5.75-6.21,6.44-9.71.68-3.51,2.23-6.81,2.96-10.3.74-3.5-2.4-7.83-1.61-11.3.79-3.49,6.05-5.91,6.88-9.36.84-3.47-3.82-8.32-2.93-11.76.91-3.47,5.64-5.92,6.59-9.35.96-3.46.2-7.38,1.2-10.79,1.01-3.44-.21-7.57.85-10.95,1.07-3.41,6.48-5.43,7.59-8.79,1.14-3.41,3.62-6.29,4.8-9.64,1.19-3.38-1.48-8.1-.24-11.42,1.25-3.35.82-7.37,2.12-10.65,1.32-3.34,8.15-4.58,9.4-7.94s2.09-6.95,3.27-10.34.34-7.5,1.45-10.91.83-7.27,1.87-10.71c1.05-3.44,2.77-6.66,3.74-10.12s-.43-7.53.49-11.01,7-5.64,7.84-9.13.38-7.33,1.17-10.83c.78-3.51-.67-7.5.05-11.02s1.52-7.01,2.18-10.55,4.6-6.5,5.19-10.04c.6-3.54.59-7.22,1.12-10.78s.56-7.21,1.03-10.77c.48-3.56-3.46-7.67-3.04-11.23.42-3.57,6.23-6.55,6.59-10.12.36-3.6-4.36-7.54-4.25-11.18.11-3.61-.31-7.08-.43-10.71-.12-3.61-.41-7.07-.71-10.7-.3-3.6-.78-7.07-1.24-10.68-.45-3.59,1.03-7.4.45-10.98-.58-3.57-1.32-7.1-2-10.66-.68-3.55-2.39-6.88-3.14-10.42s-1.42-7.09-2.21-10.62c-.8-3.55-.87-7.26-1.68-10.79-.82-3.54.38-7.55-.42-11.07-.81-3.54.28-7.47-.49-10.98-.78-3.55-3.16-6.72-3.87-10.23-.67-3.3-4.77-7.31-3.75-10.54s6.69-5.69,10-5.04c2.88.57,4.33,3.97,6.16,6.57,1.95,2.76,4.74,5.66,7.85,5.31.6-3.55,1.68-7.5,2.12-11.06.44-3.57-1.69-7.4-1.41-10.98.28-3.59-.37-7.15-.25-10.74.13-3.6,2.31-7.11,2.3-10.71s1.81-7.27,1.65-10.86c-.14-3.59-.45-7.24-.72-10.82-.28-3.58-2.69-6.99-3.08-10.57-.39-3.57-1.58-7.02-2.09-10.58-.51-3.55-2.48-6.83-3.09-10.38s3.9-8.03,3.2-11.57c-.7-3.53-4.97-6.32-5.76-9.83s.62-7.54-.26-11.03c-.87-3.49-2.01-6.94-2.95-10.4-.95-3.47-.15-7.48-1.16-10.93-1.01-3.46-6.44-5.58-7.51-9.01-1.08-3.44-2.77-6.65-3.89-10.06-1.14-3.42,1.39-8.07.2-11.45-1.18-3.4-1.74-7.04-2.97-10.42-1.57-4.34-4.8-8.2-2.77-12.33,1.49-3.02,3.79-3.71,6.88-4.26,2.77-.5,5.65-.88,8.8-.12,3.01.73,5.42.76,8.02,2.03-.15-3.74,1.76-6.91,1.42-10.63-.35-3.72-.47-7.53-.97-11.23-.5-3.7-4.03-6.96-4.64-10.63-.58-3.69.11-7.59-.6-11.26h0Z"/>
  <path class="cls-5" d="m787.75,399.69c-.86,3.8.39,8.1-.6,11.87-1,3.78-3.61,7.07-4.73,10.81-.76,2.51-.17,6.34-1.58,10.15-1.08,2.91-2.02,6.2-3.27,9.62-1.12,3.05-1.86,6.39-2.98,9.69-1.08,3.16-2.19,6.34-3.16,9.62-.97,3.29-1.02,6.71-1.76,9.97-.77,3.41-.57,6.68-.97,9.93-.44,3.55-3.95,6.67-3.78,9.85.2,3.64,3.97,5.88,5.2,8.77,1.36,3.17.16,8.07,3.09,9.96,3.97,2.57,10.54-1.08,15.07.28,3.57,1.07,6.56,4.52,9.05,6.9,2.5,2.38,2.63,6.6,4.21,9.89,1.48,3.07,6.63,5.26,7.43,8.79.77,3.4-1.73,7.6-1.48,11.12.27,3.59.92,7.18.79,10.59-.14,3.57.61,7.31.43,11.09-.18,3.62,1.2,7.45.94,11.18-.26,3.65-3.41,7.15-3.77,10.85-.36,3.68-3.53,6.97-4.05,10.63-.52,3.69-1.18,7.2-1.89,10.78-.72,3.67,3.65,8.48,2.69,11.99-.99,3.63-4.29,6.6-5.58,9.98-1.23,3.22-.17,7.34-1.42,10.52-1.25,3.2-5.79,5.1-7.04,8.28-1.25,3.19-1.57,6.73-2.8,9.93-1.23,3.19-1.94,6.57-3.1,9.78-1.16,3.21-1.32,6.73-2.39,9.99-1.07,3.23-2.9,6.19-3.85,9.5-.93,3.26-4.86,5.8-5.66,9.16-.79,3.29-1.22,6.65-1.28,10.03,0,3.32,3.86,5.51,5.91,8.1,2.37,2.99,4.84,6.74,5.69,10.23.84,3.46,1.68,7.96,1.27,11.72-.37,3.48-3.5,6.95-4.76,10.53-1.16,3.34-2.21,7.05-3.98,10.36-1.7,3.17-3.8,6.35-5.9,9.39-2.09,3-5.54,5.04-7.91,7.8-2.43,2.83-3.7,6.78-6.27,9.25-2.76,2.65-5.13,5.88-7.9,7.99-3.17,2.41-8.79.43-11.7,1.92-2.53,1.3-4.24,6.48-7.08,6.33-2.77-.17-5.49-.84-8.01-2-3.79-1.94-6.43-6.12-10.09-8.27-3.67-2.15-8.38-2.76-11.92-5.12,2.08,1.38,4.5,3.17,6.63,6.69,1.71,2.81,5.15,4.94,6.78,7.89,1.91,3.43,2.45,7.41,4.13,9.43,2.4,2.87,6.6,4.1,9.15,6.84,2.54,2.74,6.09,4.51,8.65,7.23s4.23,6.38,6.69,9.19c2.61,3.01,1.08,8.73,3.01,11.56,2.22,3.23,8.51,3.7,10.06,6.82,1.68,3.39,3.67,6.88,4.82,10.32,1.14,3.42,2.09,7.15,2.97,10.79.83,3.41-2.66,7.98-1.81,11.74.76,3.39,1.57,7,2.52,10.79.61,2.48,2.97,4.7,3.76,7.2,1.24-3.86,3.13-7.62,4.33-11.5,1.1-3.58,3.92-6.58,5.1-10.15s-2.61-8.79-1.38-12.32,3.63-6.7,4.91-10.22,6.86-5.45,8.17-8.95-1.55-8.59-.2-12.09c1.35-3.49,4.64-6.24,6.01-9.73s4.4-6.32,5.78-9.8.6-7.82,1.99-11.3c1.38-3.48-.1-8.08,1.28-11.58,1.43-3.64,4.37-6.73,5.86-10.38,1.48-3.65,4.76-6.58,6.22-10.24,1.46-3.67,3.28-7.2,4.67-10.89,1.39-3.7,1.3-7.93,2.54-11.65,1.02-3.06,5.05-5.18,5.97-8.25s-1.8-7.22-.91-10.3c.89-3.08,5.63-5.01,6.55-8.08.92-3.06-2.47-7.49-1.44-10.53,1.02-3.03,5.79-4.66,6.99-7.66,1.31-3.26,3.32-6.25,4.65-9.52s-1.69-8.23-.53-11.54c1.16-3.34,1.65-6.66,2.44-10.08.79-3.43,6.38-6.24,6.59-9.78.2-3.29-3.52-5.09-6.68-4.16-1.16.35-4.86-2.87-5.5-1.86-1.52,2.39-1.58,10.11-4.94,12.62-3.73,2.78-9.48,1.22-9.82-6.55-.14-3.41,2.8-6.73,3-10.13s.03-6.69.48-10.07c.45-3.37-3.22-7.44-2.6-10.78.63-3.34,3.35-6.31,4.07-9.64s3.96-6.11,4.68-9.43c.78-3.58-1.33-7.76-.67-11.37s.56-7.31,1.14-10.94,4.75-6.72,5.25-10.36c.5-3.63.43-7.36.87-11.02.44-3.64-.12-7.41.28-11.06.41-3.64-2.29-7.63-1.89-11.27.39-3.65.41-7.34.8-10.98.39-3.65,6.49-6.67,6.9-10.31.41-3.65-3.34-7.78-2.89-11.42.45-3.64,1.38-7.24,1.89-10.86.51-3.63-.19-7.49.4-11.1.59-3.62,6.05-6.39,6.73-9.99.68-3.61-2.68-8.02-1.88-11.59.64-2.85.45-6.42,1.15-10.23.59-3.22,5.82-5.91,6.32-9.43.49-3.41-2.08-7.28-1.78-10.65.33-3.62,1.12-7.06,1.12-10.27,0-4.03-.28-7.52-1.03-10.18-1.19-4.25-4.35-8.57-8.27-6.73-2.13.99-4.98,4.19-8.13,7.68-1.94,2.15-4.4,4.82-6.78,8.06-1.62,2.21-2.83,4.29-5.51,4.9-2.94.68-4.54.12-6.11-2.43-1.19-1.95-3.43-3.69-3.35-5.96.12-3.41-.43-6.86-.28-10.27s5.01-6.62,5.16-10.02c.16-3.41-1.69-6.91-1.52-10.31.17-3.41-2.33-6.96-2.16-10.36.18-3.41,2.17-6.73,2.35-10.14s-2.21-6.95-2.03-10.36-.28-6.84-.12-10.25,3-6.68,3.15-10.09c.16-3.41,3.54-6.68,3.68-10.09s-3.96-6.99-3.82-10.4c.12-3.41.17-6.81.28-10.23s3-6.75,3.08-10.16c.08-3.48-.44-6.98-.38-10.47.06-3.48-2.68-7-2.65-10.48s4.5-6.96,4.5-10.44-.14-7-.18-10.48c-.04-3.48-2.35-6.95-2.43-10.43s.28-6.99.14-10.47,1.89-7.09,1.72-10.57c-.19-3.48-3.57-6.79-3.81-10.26-.24-3.48,2.74-7.23,2.44-10.71s-1.32-6.92-1.69-10.39c-.37-3.46.1-7.08-.35-10.55-.44-3.46-4.78-6.4-5.3-9.85-.52-3.45,1.03-7.23.44-10.67s-2.21-6.7-2.88-10.12c-.68-3.42-1.62-6.79-2.39-10.19-.77-3.39-3.6-6.27-4.46-9.65s.93-7.45-.03-10.81c-1-3.49-2.69-7.06-5.3-9.59s-6.46-2.4-9.15.04c-1.74,1.58-.28,3.87-.88,6.15-.7,2.68-3.03,5.19-4.16,7.72-1.12,2.53-4.55,3.89-6.06,6.22-1,1.53-1.97,6.24-3.78,6.05-1.56-.16-4.02-3.16-4.85-4.5-1.86-2.93-3.47-6-4.81-9.2-1.24-3.08,2.69-7.94,1.75-11.19-.92-3.2-3.75-5.85-4.59-9.1-.84-3.25-4.16-5.79-5.12-8.96-.98-3.23-2.25-6.13-3.55-9.16-1.33-3.09-.44-7.19-1.92-10.22-1.48-3.03-5.69-4.61-7.31-7.57-1.65-2.91.58-8.07-1.16-10.95-1.73-2.9-7.9-3-9.74-5.82-1.85-2.83-3.61-5.58-5.56-8.32-2.07-2.91-2.84-6.91-5.18-9.96-2.23-2.9-5.61-4.86-8.08-7.76-2.4-2.81-3.06-7.18-5.67-9.87-2.61-2.67-4.87-5.77-7.67-8.22-2.84-2.47-4.98-6.06-8.01-8.17,1.55,3.99,4.88,5.47,7.18,9.38,1.73,2.95,1.89,7.27,3.58,10.71,1.66,3.38,4.86,6.08,6.38,9.22,1.89,3.92,3.83,6.97,5.34,9.27,1.98,3.02-.3,8.73,1.59,11.74,1.92,3.04,8.53,3.24,10.29,6.34,1.76,3.11,2.6,6.88,4.12,10.13,1.5,3.21-1.15,8.08.04,11.5,1.18,3.38,5.6,5.69,6.65,9.14,1.04,3.43-1.22,7.77-.3,11.26.92,3.47,5.34,6.07,6.15,9.58.8,3.5,2.84,6.81,3.53,10.34.69,3.53-3.54,7.95-2.95,11.5.6,3.54,4.15,6.62,4.65,10.18.51,3.56-.61,7.33-.2,10.9.42,3.59-.37,7.26-.03,10.84.35,3.59.15,7.17.43,10.74.28,3.6,4.23,6.92,4.45,10.48.2,3.28-2.67,6.91-2.25,10.17.43,3.27,5.71,5.21,6.93,8.26,1.21,3.02-1,8.49,1.35,10.74,2.41,2.3,7.08.78,10.38,1.27,2.22.33,4.95.83,6.88,1.98,2.65,1.58,5.44,4.56,7.34,7.99,1.51,2.75,4.28,5.79,5.38,9.38.96,3.12-1.22,7.38-.52,10.94.65,3.3,3.69,6.38,4.14,9.89.44,3.4,1.54,6.9,1.84,10.36.3,3.49-4,7.31-3.81,10.71.2,3.58.16,7.04.27,10.34.12,3.73.86,7.2.91,10.33.07,4.18,3.77,7.64,3.84,10.24.09,3.53-2.82,7.11-2.84,10.63s.46,7.05.33,10.57c-.12,3.52-2.33,6.91-2.56,10.42-.23,3.52-.92,6.93-1.27,10.44s.57,7.1.12,10.6c-.45,3.49.6,7.2.04,10.68s-4.02,6.41-4.69,9.88c-.68,3.46-.93,6.93-1.72,10.37h0Z"/>
  <path class="cls-7" d="m664.53,695.96c.52,1.61,1.06,3.21,1.6,4.82,9.91,29.4,19.34,59.22,34.51,86.44,19.62,35.22,48.7,66,59.09,104.94,5.87,22,5.31,45.14,4.07,67.87-1.57,28.85-4.17,57.74-9.59,86.15-2.78,14.6-5.53,29.41-9.77,43.67-3.41,11.43-11.1,22.12-16.9,32.6-14.5,26.19-33.3,49.7-52.6,72.47-4.79,5.65-9.68,11.33-15.71,15.64-5.96,4.26-12.81,7.03-19.61,9.76-13.7,5.52-27.46,11.05-41.79,14.61-22.17,5.5-45.19,6.16-67.94,8.3-32.9,3.1-65.43,9.33-97.15,18.62-14.89,4.36-22.72-4.07-36.38-6.91-5.1-1.06-10.24-1.79-15.31-2.98s-10.96.99-16.01-.26-9.73-4.05-14.77-5.34c-5.97-1.51-11.24-5.75-17.2-7.26-5.97-1.51-11.71-3.88-17.67-5.39s-12.32-1.48-18.28-2.99c-4.79-1.22-10.16-.15-14.65-1.72-4.58-1.62-7.88-7.55-12.56-8.67-4.56-1.09-9.81,3.49-14.86,3.7-5.22.22-10.74-3.06-15.95-2.31-5.18.75-10.39,1.72-15.56,2.71-5.16.99-10.14,2.92-15.29,3.86-5.18.95-10.06,4.15-15.23,4.77-5.24.63-10.71.05-15.93.05s-10.34-1.99-15.55-2.91c-5.04-.9-9.61-3.1-14.64-5.13s-8.77-5.32-13.1-8.26c-4.38-2.98-11.5-2.6-15.3-6.32-3.76-3.66-4.83-9.94-8.16-14.13-3.27-4.1-7.4-7.61-10.39-12.04-2.95-4.38-4.31-9.8-7.1-14.32-2.8-4.52-5.78-8.94-8.55-13.42-2.82-4.56-7.72-7.72-10.63-12.05-2.94-4.35-6.08-8.57-9.39-12.65-1.43-1.78-2.77-4.74-4.77-3.62-2.25,1.25-.61,4.52.6,6.79s.57,4.17-1.74,5.29c-1.28.62-2.13,2.29-3.37,1.6-3.73-2.11-8.47-4.24-11.02-7.76-2.55-3.51-4.7-7.88-6.46-11.63-2.24-4.77-4.18-9.79-6.32-14.7-2.11-4.84-.64-11.21-2.62-16.18-1.97-4.91-5.43-9.25-7.24-14.27-1.8-4.99-4.02-9.85-5.63-14.93-1.61-5.06-1.93-10.5-3.33-15.64s-5.98-9.52-7.12-14.71c-1.15-5.2-1.82-10.61-2.69-15.84-.88-5.25-1.2-10.69-1.77-15.96-.58-5.29,2.79-10.87,2.56-16.17-.23-5.32-3.51-10.57-3.37-15.88.14-5.32,1.2-10.63,1.75-15.92.55-5.29.83-10.67,1.81-15.9.99-5.21,4.55-9.8,6-14.93,1.43-5.08-.29-11.28,1.63-16.28,1.89-4.91,3.72-10.15,6.11-14.96,2.45-4.95,5.53-9.82,8.55-14.33,3.04-4.55,9.98-6.17,13.49-10.36,3.49-4.17,5.1-9.99,8.96-13.89,3.83-3.86,6.62-8.98,10.72-12.65,4.05-3.63,10.74-4.28,14.95-7.8,4.18-3.49,9.24-5.91,13.47-9.36s7.46-8.16,11.66-11.66c4.21-3.5,5.9-9.89,9.98-13.49,4.11-3.63,8.5-6.75,12.38-10.57,3.91-3.86,7.8-7.59,11.46-11.66,3.66-4.08,10.27-5.69,13.72-9.95s6.49-8.95,9.77-13.35c3.27-4.39,3.79-10.79,6.94-15.29,3.15-4.48,7.41-8.19,10.48-12.73,3.07-4.54,5.18-9.72,8.22-14.29,3.04-4.56,6.71-8.71,9.77-13.25s7.67-8.03,10.8-12.54c3.13-4.5,3.49-10.98,6.73-15.4,3.23-4.4,8.85-7,12.2-11.3s7.03-8.29,10.51-12.49c3.47-4.2,5.54-9.58,9.12-13.69,3.57-4.11,7.19-8.21,10.87-12.23s9.53-5.99,13.3-9.93c3.76-3.94,5.07-10.25,8.91-14.13,3.83-3.87,9.51-5.89,13.42-9.69,3.9-3.8,7.57-7.84,11.53-11.58,3.96-3.74,7.47-7.95,11.49-11.64,4.01-3.69,7.6-7.84,11.66-11.48s9.64-5.55,13.73-9.16,7.75-7.68,11.86-11.26,8.61-6.72,12.74-10.28c4.13-3.55,6.96-8.63,11.11-12.17s6.76-8.87,10.9-12.39c3.91-3.34,7.87-6.74,11.87-10.01s9.11-5.29,13.28-8.31c4.2-3.03,8.6-5.89,13.04-8.48,4.46-2.59,8.83-5.79,13.64-7.73,4.66-1.88,10.56.23,15.42-.89,4.87-1.13,9.35-4.07,14.34-4.49,4.98-.42,9.92,1.48,14.93,1.73,5,.24,10.53-3.65,15.46-2.8s8.59,7.28,13.37,8.7c4.82,1.43,10.86-.76,15.44,1.2,8.87,3.78,9.93,4.37,12.79,12.84,2.69,7.98,5.12,15.63,9.1,23.12,7.99,15.05,19.01,28.26,30.16,41.04,14.87,17.06,30.9,33.51,42.35,53.18,5.28,9.07,7.04,18.2,10.8,27.54,5.42,13.45,15.44,23.99,21.72,36.79,5.88,12.06,9.91,25.4,14.1,38.23h0Z"/>
  <path class="cls-2" d="m122.55,157.22c-1.22,5.54-3.85,10.92-4.76,16.52-.92,5.6.96,11.65.34,17.28s-1.88,11.24-2.23,16.9c-.36,5.66,1.81,11.41,1.71,17.07s-4.28,11.36-4.15,17.04,2.83,11.29,3.17,16.95c.4,6.76.24,12.45,2.98,14.74,2.8,2.35,8.56,3.38,15,3.38,4.57,0,9.56.14,14.04-.61,4.47-.75,8.61-3.94,13-5.13,4.39-1.19,9.31-.84,13.62-2.18,4.96-1.55,9.03-5.96,13.98-7.62s9.83-3.43,14.68-5.29c4.87-1.87,10.8-1.35,15.53-3.51,4.75-2.17,8.23-6.96,12.76-9.52,4.53-2.56,10.42-3.17,14.67-6.22,3.16-2.27,5.42-6.3,7.25-9.73,3.49-6.52,1.33-14.76-.85-21.82-1.48-4.8-4.24-9.07-5.85-13.67-1.65-4.71-1.9-9.87-3.73-14.41-1.85-4.6-3.82-9.14-5.9-13.6s-7.25-7.3-9.59-11.66c-2.31-4.31-4.26-8.69-6.88-12.93-2.56-4.13-2.09-10.31-4.99-14.42-2.93-4.16-5.43-8.63-8.37-12.78s-8.05-6.78-10.99-10.94c-2.93-4.16-4.84-9.04-7.77-13.2-2.79-3.95-6.03-11.77-10.56-14.06-6.19-3.13-10.42,4.43-15.56,8.42-3.44,2.7-6.61,5.74-9.45,9.06-2.95,3.37-7.19,5.67-9.57,9.48s-3.32,8.35-5.13,12.43c-2.13,4.79-3.02,9.94-4.79,14.85-1.78,4.92-7.11,8.69-8.55,13.71-1.47,5.03-1.93,10.39-3.05,15.49h0Zm412.62-6.53c1.41,4.55,4.14,8.64,5.44,13.23,1.29,4.57,4.05,8.75,5.14,13.41,1.08,4.59,1.97,9.29,2.77,14.04.87,5.1,4.03,9.86,4.8,14.98s1.55,10.3,2.2,15.43-4.24,10.89-3.73,16.04,6.4,9.87,6.73,15.03c.33,5.17.55,10.45.68,15.62.13,5.18-3.59,10.4-3.69,15.57-.1,5.17-.45,10.29-.8,15.45-.36,5.16-2.13,10.09-2.77,15.23-.69,5.62,3.27,13.22.21,18-2.56,4.01-8.07,7.31-12.54,8.93-4.37,1.58-9.99.2-14.61-.36-4.69-.57-10.17.13-14.49-1.79-4.29-1.9-6.29-8.4-10.31-10.78-4.26-2.51-8.6-4.78-12.79-7.43-4.18-2.65-9.59-3.39-13.69-6.17s-8.59-5.03-12.6-7.92c-4.08-2.94-6.38-8.18-10.17-11.5-3.81-3.32-9.96-4.58-12.94-8.65-2.97-4.05-6.28-8.59-8.15-13.22-1.86-4.6-1.26-10.32-2.3-15.24-1.04-4.89-2.81-9.82-3.31-14.76-.46-4.59.53-9.4.59-14.02.05-4.63-1.2-9.66-.25-14.19.96-4.55,6.94-7.44,8.8-11.7,1.85-4.25,3.12-8.49,5.52-12.46,2.75-4.55,4.85-9.35,8.03-13.57,3.18-4.23,7.8-7.11,11.34-11.05,3.54-3.94,6.93-7.79,10.74-11.47,3.81-3.68,5.75-9.33,9.76-12.79s7.8-7.26,11.93-10.55c4.14-3.3,7.51-8.38,11.97-12.06,4.49-3.7,10.66-.92,15.85-2.62,2.36-.76,3.91-5.46,5.7-3.74,1.26,1.22,2.72,3.8,3.22,5.48,1.55,5.22,3.76,10.19,5.38,15.31,1.65,5.19.74,11.12,2.33,16.27h0Z"/>
  <path class="cls-7" d="m523.89,118.1c-.61,1.72-2.99,2.99-4.42,4.25-3.88,3.39-9.44,4.76-13.41,8.05-3.96,3.3-6.29,8.55-10.26,11.82-3.97,3.28-6.56,8.17-10.47,11.51-3.91,3.35-9.31,4.97-13.09,8.47s-8.63,6-12.19,9.72c-2.86,2.98-5.77,10.36-10.47,15.69-4.87,5.51-12.85,10.96-11.77,15.8-.52-2.3,6.46-8.6,13.39-12.07,4.42-2.21,10.56-2.32,15.22-4.26,6.86-2.84,12.15-6.71,13.71-7.34,5.33-2.13,10.76-4.56,16.25-6.26s11.48-2.4,17.13-3.46c5.64-1.06,11.55-2.51,17.32-2.71,1.5-.05,3.41,2.29,4.23,3.54,1.59,2.41-2.69,2.48-5.49,3.22-4.78,1.26-9.04,4.71-13.69,6.42-4.65,1.71-8.59,5.03-13.06,7.16-4.46,2.14-10.66,1.24-14.91,3.78-4.24,2.55-5.66,9.4-9.64,12.33-4.06,2.99-8.09,5.13-10.08,9.76-.36.82-.15.68.07,1.54.66,2.59,1.68.21,4.2-.68,4.35-1.55,9.85.38,14.33-.72s8.97-1.75,13.54-2.38,9.08-.92,13.69-1.07c1.89-.06,2.82.6,4.45,1.54,1.64.94,3.43,1.23,2.45,2.83-.44.86-1.1,1.59-1.92,2.11-3.68,1.92-8.1,2.42-11.78,4.34s-7.49,3.6-11.17,5.52c-2.54,1.32-5.42,3.46-7.16,5.74s-2.15,7.23-.36,9.47c1.73,2.15,5.67,2.95,8.44,3.06,3.09.14,7.38,2.68,12.19,4.89,4.86,2.22,12.71,2.29,13.6,5.85.47,1.88-3.17,4.42-3.27,6.37-.31,6.18,5.06,10.63,8.04,16.1,2.88,5.28,2.31,12.95,5.75,17.85,3.79,5.39,7.26,10.71,10.28,16.59,3.03,5.88,8.77,10.66,10.59,17.02,1.7,5.96,2.58,8.58,2.44,15.06-.14,6.41-5.53,12.85-5.6,18.98-.05,5.55.36,16.08.21,21.72-.15,5.59-.9,10.74-1.28,16.35-.37,5.61,1.56,10.88.82,16.43-.75,5.59-2.43,10.9-3.68,16.33-1.27,5.49-3.08,10.61-5.01,15.86s-1.48,11.6-4.21,16.53c-2.69,4.83-8.47,7.64-12.06,12.09-3.37,4.18-7.45,7.54-10.96,11.49-3.56,4.01-5.1,9.72-8.87,13.41-3.81,3.73-9.19,5.49-13.33,8.8-4.13,3.31-6.95,8.25-11.5,11.08-4.45,2.77-8.5,6.65-13.44,8.87-4.97,2.24-11.34.92-16.48,2.68-5.15,1.77-9.12,7.53-14.41,8.88-5.27,1.35-10.85,2.06-16.2,3.05s-10.96.99-16.35,1.68c-5.42.68-11.07-1.15-16.49-.72-5.03.4-9.87,3.21-14.9,3.61s-10.31-2.27-15.34-1.87-9.99,1.79-15.01,2.2c-5.03.4-10.15-.21-15.17.2-5.03.4-9.88,3.07-14.91,3.48-4.46.36-8.87,2.06-13.35,2.29s-9.11,1.03-13.59.9c-4.78-.14-9.19-4.86-13.91-5.49-4.72-.63-9.35-.99-14.01-2.01-4.66-1-9.46-1.2-14.06-2.45-4.61-1.25-8.97-3.21-13.52-4.59-5.26-1.6-11.11-1.32-16.41-2.86-5.29-1.53-10.62-3.09-15.83-4.87s-9.42-5.91-14.41-8.24c-4.36-2.04-10.68-.31-14.87-2.66s-7.69-6.09-11.73-8.68-8.66-4.5-12.56-7.31c-3.89-2.81-8.05-5.45-11.83-8.41-3.78-2.97-4.3-9.95-7.98-13.03-4.09-3.43-10.25-4.35-14-7.89-3.88-3.66-5.9-9-9.36-12.83-3.56-3.94-8.89-6.38-11.94-10.57-3.09-4.26-5.87-8.9-8.38-13.49-2.5-4.57-4.37-9.62-6.22-14.58-1.8-4.82-4.77-9.63-5.89-14.87-1.13-5.23-1.91-10.53-2.34-15.86-.42-5.45,1.97-11.12,2.08-16.6.12-5.47,2.59-10.7,3.21-16.15.62-5.44,1.16-10.72,2.26-16.1,1.1-5.37-.26-11.31,1.3-16.57s2.2-10.97,4.18-16.07c1.99-5.12,6.98-8.98,9.38-13.89,2.42-4.94,5.06-9.66,7.86-14.35,2.74-4.58,6.17-8.61,9.26-12.99,3.08-4.37,6.52-8.29,9.93-12.41,3.41-4.12,3.32-11.43,7.04-15.26,3.73-3.84,7.8-7.68,11.84-11.18,4.05-3.51,11.56-2.67,15.9-5.79s8.35-6.39,12.96-9.1c4.61-2.7,9.49-4.42,14.36-6.65,1.66-.76.45-4.79,1.07-6.51.71-2,.54-2.67-.93-4.19-4.22-4.37-8.64-9.08-14.62-10.3-5.78-1.17-12.11,2.47-17.97,2.98-2.13.19-2.75-1.73-4.2-3.29,1.81-3.81,3.09-6.4,6.92-8.22,3.65-1.73,8.29-.66,12.21-1.54,5.55-1.24,10.52-6.54,16.19-6.87,4.33-.25,7.8,4.71,11.65,5.57,3.91.87,9.73,1.63,13.75,2.66,1.7-4.79-3.84-13.21-9.68-18.05-5.57-4.61-13.69-6.06-16.99-7.79-5.7-2.99-11.1-6.12-17.18-8.22-6.07-2.09-11.4-6.49-17.5-8.45-.65-.21-.45.44-.72-.19-.62-1.46.19-3.46,1.78-3.46,5.34-.02,10.27,4.66,15.5,5.41,5.26.76,11.44-2.78,16.52-1.28s8.68,7.08,13.5,9.32c4.79,2.22,11.21,1.6,15.68,4.52,1.38.9,7.05,4.39,11.75,7.68,5.67,3.97,11.39,8.07,9.1,1.27-1.77-5.25-4.17-10.47-6.5-15.43s-6.26-9.11-8.12-14.28c-1.64-4.55-2.42-9.54-4.4-13.95-1.99-4.41-7.42-7.08-9.75-11.32s-4.13-8.64-6.78-12.69c-2.65-4.04-5.91-7.51-8.87-11.33-2.14-2.75-10.32-11.04-3.65-13.51,4.03-1.49,10.91,5.52,13.61,7.85,4.86,4.21,11.67,6.61,15.77,11.56,4.08,4.93,8.24,9.77,12.38,14.61,3.81,4.47,4.21,11.73,7.84,16.34s7.17,9.2,10.61,13.95c3.44,4.75,7.02,9.33,10.28,14.21s8.38,8.56,11.44,13.57c-.27-.44,7.09-1.5,15.37-2.35,7.69-.79,15.62,1.76,16.7,1.7,6.39-.33,12.66-3.27,19.07-3.41,6.4-.14,12.97-2.83,19.38-2.44,5.93.36,11.53,3.13,16.91,4.27,5.69,1.21,10.15,5.76,15.41,7.71,5.34,1.98,12.22.37,17.31,2.98,5,2.55,8.71,7.64,13.67,10.64,4.77,2.88,9.04,6.69,13.94,9.86,1.77,1.15,4.45-1.86,6.56-1.95,4.78-.15,9.35-1.99,12.9-5.2,4.45-3.93,10.21-6.6,12.72-8.87,4.17-3.74,6.83-9.17,10.88-13.08,4.04-3.9,9.29-6.56,13.32-10.47,4.04-3.92,7.38-8.5,11.53-12.26,4.17-3.78,9.35-6.2,13.75-9.66,4.41-3.46,6.16-10.78,10.94-13.76,4.72-2.95,12.05-1.18,17.24-3.49,2.94-1.31,7.52-5.07,9.19-2.32.64,1.11.03,3.35-.38,4.49h0Z"/>
  <path class="cls-5" d="m145.37,1127.94c-1.25-4.9-.92-10.21-2.04-15.12-1.11-4.92.05-10.33-1-15.26-1.04-4.93-3.69-9.52-4.74-14.46-1.04-4.92-3.32-9.58-4.44-14.5-1.12-4.9-1.85-9.89-3.12-14.78-1.26-4.86-.5-10.33-1.97-15.18-1.47-4.91-2.84-9.84-4.11-14.81-1.32-5.03-4.2-9.51-5-14.6-.77-4.91-.92-9.97-1.03-15.34-.12-5.55-2.54-10.66-3.2-15.85-.68-5.43-.24-10.85-1.37-16.04-1.15-5.26-2.92-10.29-4.37-15.48-1.43-5.12-1.52-10.67-3.1-15.88-1.53-5.04-5.21-9.54-6.75-14.82-1.52-5.2-.84-11.02-2.08-16.33-1.24-5.29-4.58-10.1-5.79-15.4-1.22-5.3-.12-11.18-1.59-16.4-1.48-5.23-2.98-10.55-4.97-15.61-1.98-5.02-4.03-10.25-6.78-15-.83-1.42-2.19-.53-3.65-1.31-3.59,3.58-4.98,7.89-6.14,14.34-.92,5.19-.44,10.72-.31,16.82.12,5.63.81,11.24,1.44,16.95.66,5.94,1.65,11.63,2.46,16.93,1.03,6.72-3.03,13.32-2.51,17.65.65,5.37,5.77,10.17,6.52,15.53s.35,10.86,1.2,16.2c.85,5.35,3.01,10.44,3.95,15.77s-2.47,11.47-1.44,16.78,3.13,10.44,4.25,15.73,3.41,10.34,4.62,15.62c1.2,5.28,4.06,10.15,5.34,15.41s-.69,11.33.65,16.57c1.31,5.13,4.45,9.77,5.95,14.83,1.5,5.06.61,10.92,2.27,15.93s7.72,8.53,9.47,13.5-.23,11.28,1.57,16.24,4.78,9.49,6.58,14.44,6.86,8.74,8.64,13.71c1.77,4.97,1.76,10.58,3.45,15.58,1.68,4.99.8,10.8,2.35,15.85,1.43,4.65,2.92,9.43,4.49,14.14,1.57,4.69,2.88,9.66,4.78,14.19,1.92,4.61,5.41,8.65,7.87,12.85,2.53,4.31,5.91,8.11,9.21,11.73s7.92,8.56,12.2,11.22c2.42-4.74,4.12-11.82,4.03-17.01-.08-5-3.71-9.75-5.24-14.84-1.48-4.92-4.23-9.31-6.28-14-2.17-4.98-1.02-11.24-2.93-15.62-1.98-4.57-2.94-9.35-4.6-13.95-1.68-4.66-3.31-9.18-4.72-13.87-1.45-4.71-6.81-8.32-8.03-13.07Zm588.05-258.84c1.53,5,.34,10.84,1.53,15.97,1.19,5.11,3.15,10.08,4.05,15.27.9,5.17-.12,10.63.54,15.85.67,5.22,5.29,10.04,5.76,15.26.48,5.26-4.37,10.92-4.05,16.12.32,5.12,5.28,10.12,5.42,15.41.13,5.14-3.66,10.41-3.72,15.7-.05,5.17,2.9,10.48,2.65,15.74-.24,5.18.67,10.56.22,15.8-.44,5.19-4.2,10.1-4.85,15.3-.65,5.18,1.16,10.77.29,15.92-.86,5.15-6.3,9.43-7.4,14.54-1.1,5.12,1.57,11.12.22,16.16-1.35,5.07-1.71,10.55-3.33,15.5-1.63,4.99-6.29,8.96-8.2,13.81-1.93,4.89-1.59,10.82-3.82,15.51-2.26,4.75-9.27,6.98-11.84,11.5-2.61,4.57-2.47,10.71-5.42,15-2.98,4.33-7.85,7.13-11.2,11.13-3.37,4.02-7.4,6.85-10.4,10.2-3.53,3.93-3.71,10.62-7.23,13.42-3.95,3.14-8.55,6.12-13.2,7.57-4.25,1.31-9.49-1.56-14.93-1.89-4.29-.26-9.47,1.7-14.81.3-5.48-1.43-9.73-6.97-15.13-8.72-5.39-1.75-11.02-3.78-16.57-4.87-5.19-1.02-11.29-1.45-17.08-1.65-5.54-.2-11.28,2.93-16.81,3.43-5.77.52-11.57.44-16.72,1.66-5.79,1.39-11.06,4.08-16.38,6.32-5.42,2.27-9.52,7.03-14.72,9.69s-10.94,4.3-16.18,6.84c-5.23,2.53-11.45,2.75-17,4.66-6.31,2.18-12.3,4.22-16.33,1.28-3.72-2.71-4.97-9.36-7.96-14.63-2.52-4.44-5.15-8.82-6.87-13.62-1.72-4.76-5.51-9.04-6.84-13.97-1.32-4.91-.52-10.4-1.86-15.3-1.34-4.93-2.57-9.83-4.32-14.57-1.77-4.77-1.21-10.87-3.8-15.26-.92-1.55-4.13.26-5.89.61-1.32.28-2.62-.63-3.17.6-2.02,4.53-1.41,9.65-2.08,14.66-.65,4.88-3.87,9.67-3.89,14.69-.03,5.05-.72,10.09-.76,14.99-.05,5.21.42,9.99-.43,14.64-.93,5.12-3.45,8.35-6.37,12.31-2.69,3.66-3.01,11-8.26,13.25-3.93,1.69-9.9-.28-15.68.42-6.03.74-11.17-1.35-16.25-1.97-5.93-.73-11.27-.22-16-2.52-5.13-2.5-8.38-6.65-12.19-10.63-3.78-3.95-6.38-8.17-8.97-13.24-2.5-4.8-4.47-9.85-5.87-15.08-1.41-5.27-6.35-10.03-6.93-15.64-.58-5.5-.2-11.32-.04-16.89.15-5.61,2.37-11.1,3.17-16.52.84-5.66-.09-11.68,1.39-16.84,1.57-5.5,5.54-10.23,7.52-15.55,2-5.35,3.86-10.71,6.3-15.84s7.42-8.79,10.31-13.71c2.87-4.89,2.78-11.62,6.12-16.28,3.13-4.35,5.66-8.79,8.5-12.66,3.17-4.34,9.35-6.4,11.74-10.55,2.62-4.56,2.59-10.31,3.7-15.18,1.06-4.66.52-9.47-.33-14.94-.69-4.45-3.1-8.61-5.38-13.89-.92-2.13.39-5.9-1.48-7.28-4.48-3.31-11.05.77-15.72,3.81-5.44,3.54-12,5.77-16.89,10.02-4.9,4.26-7.14,11.18-11.39,16.08-2.79,3.22-7.81,8.24-12.32,13.36-4.65,5.29-10.25,10.6-15.29,10.34-5.18-.28-9.67-3.86-13.61-7-3.57-2.84-6.13-4.98-12.24-3.62-5.36,1.2-8.78,3.88-10.87,8.87-2.05,4.88-1.6,10.8-2.53,15.19-1.17,5.53-2.64,10.9-3.4,16.49s-.19,11.22-.59,16.84-3.83,11.09-3.94,16.74c-.11,5.63,3.03,11.26,3.14,16.91.12,5.64,1.02,11.19,1.29,16.83.27,5.64-2.34,11.42-1.98,17.03.36,5.64,2.56,11.15,2.93,16.76.4,5.93-.94,11.99-.48,17.94.45,5.93,2.45,11.72,3.06,17.63.61,5.93-2.05,12.28-1.16,18.16s3.1,11.62,4.37,17.44c.76,3.47,2.36,6.84,3.47,10.33.49,1.55,5.35,4.28,10.51,6.12,4.77,1.7,8.48,4.91,10.11,5.91,4.86,2.96,12.24.68,17.02,3.11,4.71,2.4,8.41,6.79,13.85,8.72,4.98,1.78,10.39,2.11,15.43,3.7,5.04,1.57,8.96,6.96,14.05,8.39s11.44-1.89,16.56-.59c5.11,1.31,9.18,6.85,14.31,8.09s11.18-1.31,16.31-.09c5.81,1.38,11.16,3.89,16.98,4.42,5.8.52,11.62.88,17.46,1.81,5.3.84,10.64-.84,15.91-.66,5.31.18,10.52,1.89,15.81,1.63,5.3-.27,10.39-2.71,15.69-3.19,5.28-.47,10.59-.76,15.88-1.19,5.28-.44,10.7-.37,15.99-.54,5.28-.17,10.6,2.07,15.91,2.41,4.78.3,9.46,2.62,14.1,2.72,4.77.1,9.45-4.03,14.09-4.22,4.75-.2,9.55,1.43,14.17.85,4.79-.6,9.99.31,14.68-.79,4.66-1.09,7.93-6.88,12.49-8.56,4.44-1.63,10.25-.2,14.62-2.48,4.15-2.16,8.53-4.54,12.63-7.36,3.43-2.35,6.46-7.59,10.78-11.42.64.82.56,3.06,1.14,3.94.4.61,1.21-1.28,1.57-.68,4.16-2.61,8.26-4.66,12.21-7.61,3.94-2.94,7.34-6.4,11.05-9.64,3.71-3.23,9.73-4.02,13.21-7.5,3.48-3.48,7.38-6.75,10.64-10.46,3.25-3.7,3.73-9.75,6.76-13.63,3.03-3.89,8.15-6.25,10.96-10.29,3.07-4.41,5.56-9.16,8.35-13.56,2.86-4.52,6.26-8.72,8.88-13.24,2.67-4.61,5.89-8.96,8.34-13.6,2.48-4.69,2.45-10.65,4.77-15.4s6.27-8.73,8.46-13.56c2.17-4.78.22-11.39,2.32-16.27,2.07-4.82,5.64-9.01,7.69-13.93,2.01-4.82,4.89-10.39,6.92-15.34,1.56,4.67,4.84,10.17,5.74,15s.13,10.07.39,14.99-1.41,9.8-1.81,14.7c-.18,2.11,2.47,2.9,3.94,4.43,3.34,3.47,5.31-.64,6.98-5.16,1.77-4.79,6.21-8.67,7.69-13.54,1.48-4.88.24-10.51,1.44-15.46,1.21-4.95,4.3-9.49,5.25-14.5.94-5,2.22-10.01,2.92-15.07.69-5.05,1.88-10.11,2.33-15.19.45-5.07-.44-10.3-.2-15.39.24-5.08-2.37-10.23-2.33-15.32.04-5.09.14-10.12,0-15.21s-1.24-10.07-1.57-15.15c-.33-5.08,2.16-10.36,1.68-15.43-.55-5.77.41-11.75-.33-17.49-.75-5.77-5.18-10.99-6.09-16.7-.92-5.74.68-11.89-.39-17.56-1.07-5.72-.86-11.71-2.06-17.35-1.03-4.83-6.3-8.97-7.42-14.11-1.08-4.96-1.49-10.07-2.88-15.03s.65-11.17-1.25-15.88c-1.94-4.82-7.31-8.01-10-12.3-2.75-4.37-6.86-7.01-10.64-10.52-3.8-3.53-5.24-9.99-9.59-12.8-4.33-2.79-9.33-4.45-13.44-7.52-4.81-3.6-7.97-8.1-11.55-12.31-3.75-4.42-10.64-6.68-13.41-11.66-2.76-4.96-1.66-11.9-3.83-17.28-2.1-5.21-6.53-9.67-8.43-15.19-1.56-4.5-2.3-9.27-3.89-13.76-1.58-4.49-2.21-9.32-3.84-13.79-1.62-4.48-4.86-8.35-6.54-12.81-1.76-4.7-1.78-10.05-3.59-14.72s-2.48-9.83-4.36-14.47-3.95-9.26-5.9-13.87c-1.95-4.62-3.75-9.34-5.78-13.92s-7.51-7.6-9.63-12.15-.9-10.69-3.1-15.19-7.4-7.51-9.7-11.97c-2.46-4.74-3.89-10.03-6.48-14.71-2.6-4.67-3.82-10.16-6.55-14.76s-7.79-7.79-10.64-12.3c-2.45-3.91-5.58-7.33-8.14-11.17-.06-.09,2.42-1.87,2.37-1.94-3.52-5.29-7.41-10.37-11.12-15.53-3.71-5.15-9.08-9.05-13.05-14.02-3.77-4.72-8.1-9.11-11.57-14.05s-6.31-10.26-9.9-15.1c-2.66-3.58-7.49-7.19-11.07-11.56-3.73-4.55-6.73-10.89-5.93-15.91.93-5.86,5.93-10.94,7.13-16.71,1.2-5.78-.18-12.07.83-17.89,1-5.78,3.15-11.5,3.5-17.42.34-5.69,1.42-11.33,1.76-17s.95-11.37,1.2-17.06c.25-5.68-3.4-11.46-3.34-17.16.07-7.19,4.51-15.69,4.46-23.16-1.53,4.18-6.06,10.01-6.94,15.19-.91,5.38,1.19,11.1.83,15.24-.44,5.11-2.59,10.09-3.17,15.24-.58,5.11-.51,10.32-1.25,15.44-.75,5.1-1.39,10.24-2.34,15.32-.96,5.07-3.98,9.68-5.18,14.69-1.21,5.03-2.05,10.07-3.55,15-1.5,4.95-.03,10.95-1.86,15.77-1.84,4.83-7.33,8.14-9.54,12.79-2.21,4.66-2.11,10.55-4.73,15-2.6,4.51-5.43,8.89-8.46,13.13-3.02,4.14-7.97,6.82-11.46,10.69-3.17,3.51-3.77,9.35-5.9,13.69-2.38,4.89-5.3,8.09-2.04,12.31,4.49-2.23,9.6-3.02,13.81-5.93,4.33-2.99,7.15-8.18,11.39-10.49,4.76-2.59,10.03-6.07,14.97-5.91,4.44.14,8.37,5.02,13.19,8.94,3.86,3.13,9.21,4.96,12.3,8.87,3.05,3.86,2.09,10.39,4.54,14.76,2.41,4.31,4.75,8.43,6.72,13.01,1.98,4.58,7.73,7.66,9.41,12.27,1.74,4.77,3.68,9.42,5.26,13.97,1.71,4.9,3.55,9.76,5.26,14.68,1.71,4.9.38,10.86,2.09,15.77s2.24,10.22,3.95,15.13c1.71,4.9,4.26,9.51,5.97,14.43,1.71,4.9,5.06,9.24,6.77,14.14s1.29,10.55,3,15.46c1.71,4.9,4.78,9.34,6.48,14.25,1.71,4.9,6.04,8.9,7.75,13.81,1.69,4.86.6,10.78,2.42,15.77,1.78,4.86,2.45,10.19,4.23,15.14,1.78,4.91,7.56,8.48,9.22,13.45,1.66,4.98,1.42,10.63,2.85,15.64,1.45,5.07,1.87,10.39,2.95,15.47,1.1,5.17,2.14,10.31,2.73,15.45.57,5,.44,10.03.58,15.07.13,5.01-.44,10.01-.54,15.06-.11,5.02.65,10.07.51,15.12-.14,5.02-2.5,10.06-2.5,15.09s2.46,10.04,2.8,15.08c.34,4.99.37,11.65,1.22,16.65,1.82-4.19,3.98-11.1,7.03-15.93,2.67-4.22,8.22-6.67,11.61-10.81,3.31-4.03,6.45-7.97,10.26-11.44,3.99-3.63,7.83-6.73,12.16-9.2,4.78-2.72,8.93-5.95,13.86-6.56,5.86-.71,10.17.92,13.56,3.77,3.49,2.93,5.55,7.38,7.48,12.14,1.74,4.5,5.74,8.54,7.08,12.94h0Z"/>
  <path class="cls-7" d="m151.9,1177.59c1.05,4.68-.32,9.77.52,14.48.84,4.7,1.84,9.23,2.38,14.01.54,4.71,2.47,9.24,2.67,14.08.19,4.71,3.35,9.55,3.16,14.43-.22,5.5-3.05,11.16-4.92,16.34-1.89,5.23-5.19,9.91-9.09,13.89-2.93,2.98-5.35,6.56-8.47,9.35-3.81,3.43-9.51,5.45-12.08,9.87s-2.32,10.22-3.49,15.19-1.16,9.85-.76,14.95c.52,6.6-1.18,13.16.84,18.05,2.45,5.87,7.42,10.18,11.75,13.81,4.39,3.67,10.47,4.08,16.46,5.69,5.32,1.42,10.72,5.61,17.05,5.59,3.3,0,6.6.73,9.9.72,6.41-.03,12.88-.23,19.29-.43,5.05-.16,10.2-.54,15.45-.63,5.12-.09,10.25-2.7,15.45-2.94,5.18-.24,10.57,1.55,15.69.93,5.21-.56,10.38-1.44,15.49-2.63,5.04-1.25,9.26-5.19,13.97-7.29,4.07-1.82,6.4-5.71,9.75-8.65,3.39-2.98,7.64-4.63,9.52-8.72,2.13-4.65,4.21-9.76,4.79-15.48.53-5.21.15-10.78-.07-16.32-.22-5.45,1.11-11.11.65-16.39-.52-5.77-3.44-11.08-3.65-16-.22-5.46.26-10.94.04-16.41s.61-10.96.39-16.42c-.22-5.46-4.24-10.77-4.46-16.22-.22-5.46,2.88-11.05,2.67-16.51-.22-5.46.92-10.97.7-16.44s-1.48-10.87-1.69-16.34c-.22-5.46-4.01-10.78-4.22-16.23-.22-5.46,1.97-11.02,1.74-16.47s.48-10.95.26-16.42-3.13-10.81-3.35-16.27c-.22-5.46,2.33-11.03,2.11-16.49-.22-5.46-1.75-10.86-1.97-16.33s-1.01-10.9-1.23-16.36c-.22-5.46,3.24-11.07,3.01-16.52-.23-5.68-1.38-11.34-1.64-17.02-.25-5.69-3.09-11.24-3.41-16.91s-1.97-11.24-2.41-16.91-.2-11.35-.81-17,2.11-11.74,1.29-17.38c-.79-5.37-1.88-10.78-2.88-16.11-1-5.34-2.65-10.6-3.86-15.89-1.21-5.29-5.23-9.89-6.64-15.12-1.41-5.24-1.91-10.71-3.51-15.89-1.61-5.18-2.75-10.52-4.54-15.64s-4.57-9.87-6.54-14.92-1.46-11.16-3.6-16.14c-2.15-4.98-4.92-9.75-7.24-14.67-2.31-4.9-8.53-7.88-11.01-12.7s-4.96-9.56-7.59-14.3c-2.63-4.74-2.21-11.22-4.98-15.88-2.78-4.66-8.53-7.46-11.45-12.04s-5.43-9.34-8.49-13.82-3.36-10.9-6.55-15.29c-3.19-4.4-9.9-6.13-13.21-10.42-3.16-4.1-3.73-10.25-7.09-14.22s-8.34-6.41-11.99-10.08c-3.66-3.7-5.87-8.95-9.9-12.2-4.04-3.25-9.8-3.9-14.3-6.54-4.6-2.69-8.24-8.08-13.61-9.76-5.19-1.63-11.23-.05-16.72-.59-5.51-.53-11.14-3.03-16.53-2.29-5.53.76-10.96,3-15.89,5.28-4.98,2.29-8.27,6.95-12.16,10.95-3.65,3.75-7.7,7.33-9.99,12.74-2.08,4.91-1.46,10.72-1.57,17-.09,5.48.05,11.15.92,17.13.83,5.67,1.84,11.38,3.09,17.06,1.29,5.84,3.47,11.35,4.75,16.74,1.48,6.25,2.25,12.26,3.04,17.2.82,5.13,3.19,9.97,4.05,15.08s.45,10.43,1.36,15.54,1.17,10.32,2.13,15.42-.73,10.7.25,15.79c.99,5.09,3.06,9.98,4.08,15.06s4.06,9.75,5.11,14.84,1.71,10.23,2.79,15.31.48,10.51,1.58,15.57c1.11,5.06,3.52,9.84,4.66,14.91,1.13,5.06-.17,10.68.99,15.73s5.07,9.48,6.24,14.53,2.96,9.96,4.15,15,3.01,9.94,4.21,14.99c1.21,5.05.81,10.47,2.02,15.51,1.22,5.04,1.78,10.24,3,15.28,1.25,5.14,2.53,10.29,3.87,15.41,1.34,5.12,4.68,9.7,6.08,14.8,1.41,5.1-.87,11.25.59,16.33,1.46,5.09,5.06,9.56,6.54,14.64s5.3,9.48,6.78,14.56.76,10.8,2.23,15.89c1.47,5.08,2.1,10.4,3.53,15.5s2.93,10.16,4.31,15.27c1.73,6.48,2.83,13,4.47,19.29,1.69,6.42,4.3,12.53,5.74,18.91h0Z"/>
  <path class="cls-5" d="m154.2,916.84c2.49,4.19,3.48,10.36,6.88,14.21,3.53,3.98,9.03,6.67,13.32,8.84,4.61,2.33,9.88,1.14,15.09-.36,2.84-.82,5.81-.72,8.73-.36,2.29.28,3.71,1.84,5.52,3.27,4.62,3.65,8.15,8.08,12.12,12.34,3.98,4.26,10.88,5.9,14.75,10.27,3.86,4.37,6.05,10.2,10.31,14.18,4.51,4.2,7.55,10.34,12.43,14.17,4.86,3.82,10.32,7.14,15.46,10.59,5.16,3.46,11.75,4.73,17.07,7.82,4.07,2.36,9.26,2.52,13.66,4.5s8.46,3.78,13.03,4.97c4.7,1.23,8.87,2.62,13.59,2.62,4.76,0,9.23.2,13.83-1.47,4.54-1.65,10.63-1.22,14.37-4.18,3.69-2.93,3.65-9.99,6.81-13.64,3.13-3.61,8.31-5.53,11.17-9.29,1.48-1.96-.04-3.63-1.24-5.77-.68-1.2.75-4.06-.55-4.54-4.87-1.79-10.22-3.58-15.41-3.82-5.14-.23-10.31,4.02-15.45,4.32-5.13.3-10.5-.76-15.64-.95-5.19-.19-9.51-3.86-14.41-5.57-6.44-2.24-9.16-5.23-12.2-9.68-3.2-4.67-6.83-8.78-8.18-14.68-1.28-5.61-5.22-10.79-6.54-16.44-1.33-5.71-1.61-11.54-3.59-17.1-1.97-5.53-.67-12.48-3.11-17.85-2.45-5.36-9.41-8.51-12.17-13.69-2.78-5.22-2.38-12.2-5.33-17.23-2.83-4.83-7.03-8.91-10.1-13.63-3.07-4.73-4.57-10.68-7.99-15.12-3.43-4.47-10.36-5.95-14.26-9.98-3.91-4.02-7.59-7.94-12.09-11.35-4.45-3.37-7.68-8.91-12.74-11.38-5.07-2.47-11.53-1.1-16.95-2.44-5.5-1.36-10.6-2.44-16.17-2.39-5.6.05-11.69-2.29-17.1-.56-5.03,1.61-9.59,3.6-14.24,4.22-5.63.76-11.44-1.12-15.51,0-5.34,1.47-7.71,6.88-8.16,12.97-.26,3.56-1.54,8.81.54,15.17,1.53,4.65,6.33,8.16,8.15,12.76,1.81,4.56,4.04,8.87,6.09,13.37,2.05,4.47,1.91,9.98,4.13,14.38,2.22,4.4,7.2,7.33,9.56,11.65,2.37,4.34,4.76,8.59,7.2,12.84,2.5,4.34,2.82,9.84,5.32,14.04h0Z"/>
  <path class="cls-7" d="m71.86,452.72c.46,5.61,1.16,11.13,1.24,16.64.08,5.54.48,11.17-.05,16.75-.52,5.41-5.18,10.11-6.49,15.68-1.23,5.19,2.04,11.94-.05,17.37-2.12,5.5-5.79,10.44-8.23,15.8-2.45,5.35-6.07,10.15-8.65,15.43s-6.78,9.81-9.3,15.12c-2.52,5.31-4.62,10.91-6.9,16.33-2.21,5.27-2.59,11.29-4.45,16.68s-5.22,10.39-6.75,15.88-2.47,11.24-3.65,16.83-2.07,11.3-2.91,16.95c-.84,5.65,1.16,11.61.67,17.31-.49,5.69-3.12,11.24-3.26,16.94s1.33,11.41,1.55,17.11c.23,6.17,1.13,12.14,1.59,18.14.47,6.08-1.82,12.4-1.03,18.43.77,5.96,4.8,11.45,5.98,17.49,1.03,5.33,1.37,12.34,6,15.1,2.98-2.75,4.63-9.17,6.65-13.09,1.97-3.83,5.29-7.04,7.15-10.63,2.42-4.66,4.73-8.98,9.55-11.1,5.16-2.27,10.21-8.52,15.95-9.3,5.81-.79,11.05,3.38,15.61,8.73,3.13,3.67,7,7.08,8.31,11.74,1.28,4.56-.94,10.04-.08,14.68.99,5.3,5.82,9.9,7.27,15.39,1.4,5.24,2.61,10.55,4.42,15.88,1.74,5.18,4.48,9.96,6.58,15.16,2.05,5.1-.23,12.14,2.13,17.2,2.34,5,6.2,9.37,8.81,14.29,2.61,4.9,5.65,9.6,8.5,14.36,2.87,4.77,6.94,8.77,10.03,13.33,3.14,4.63,7.88,7.94,11.22,12.3,3.41,4.46,3.36,11.66,6.97,15.77,3.72,4.24,8.03,7.99,11.92,11.79,4.05,3.96,7.59,8.6,11.78,12.03,1.36,1.11,4.3-.99,6.03-1.33,3.35-.68,5.84-4.97,4.8-8.22-1.34-4.19-5.2-7.58-6.54-11.77-.64-1.99.97-3.17,1.93-5.03,1.32-2.57,2.85-3.73,5.34-2.26,4.05,2.4,5.5,6.66,8.02,10.52,2.47,3.78,4.96,7.41,6.85,11.63,1.91,4.29,6.28,7.25,8.49,11.01,2.54,4.31,2.99,10.11,6.07,14.19,3.04,4.02,8.58,6.05,11.95,9.82,3.41,3.81,6.85,7.44,10.38,10.96,3.64,3.64,6.76,8.04,10.88,11.66,3.92,3.46,8.86,5.79,13.1,9.14,4.15,3.29,6.74,8.72,11.1,11.82,4.37,3.11,7.98,7.49,12.44,10.33,4.57,2.91,9.58,5.23,14.14,7.77,4.79,2.67,9.37,5.86,14.04,8.03,4.91,2.28,10.9-2.5,16.46-3.54,4.91-.92,11.57,1.71,16.62-1.06,4.53-2.48,9.18-5.97,13.56-9.38,4.24-3.3,6.38-9.26,10.25-12.95,4.06-3.87,9.26-6.47,12.66-10.23,3.61-4.01,7.07-8.16,10.37-12.44,3.04-3.94,4.62-8.93,7.42-13.05,2.78-4.11,8.1-6.5,10.9-10.61s2.13-10.72,5.22-14.62c5.92-7.49,10.39-12.8,13.77-14.05,4.05-1.5,7.77,4.18,14.35,12.75,2.69,3.51,8.07,8.44,12.42,7.6,2.62-.5,2.44-6.94,4.45-8.69,4.83-4.2,8.87-7.7,12.3-11.75,4.03-4.76,9.21-7.82,11.85-12.64,2.81-5.13,4.37-10.63,6.33-16.18,1.84-5.21,2.58-10.91,4.28-16.79,1.5-5.2,5.26-10.07,7.11-16.02,1.67-5.37.84-11.5,2.45-16.91,1.59-5.4,5.51-10.14,7-15.57,1.48-5.44,3.91-10.67,5.23-16.15s2.08-11.14,3.19-16.66c1.11-5.53,1.78-11.18,2.65-16.75.86-5.56.75-11.28,1.32-16.9.57-5.6,1.26-11.2,1.5-16.84.22-5.3-1.22-10.44-1.59-15.54-.39-5.25.92-10.66,0-15.72-.95-5.14-4.05-9.75-5.46-14.74-1.42-5-1.48-10.45-3.28-15.32-1.8-4.87-4.33-9.48-6.41-14.26-2.07-4.75-2.59-10.28-4.85-14.98-2.25-4.68-4.55-9.37-6.89-14.03-2.33-4.64-7.81-7.71-10.14-12.37-2.33-4.65-3.45-9.91-5.69-14.6-2.24-4.7-5.87-8.79-7.93-13.57-2.06-4.78-4.12-9.66-5.9-14.53s-2.17-10.3-3.58-15.32c-1.4-4.97.24-10.6-.71-15.74-1.08-5.84-5.79-11.18-6.32-17.15-.53-5.93,1.94-12.14,1.42-18.07-.52-5.96.13-12.22-.89-18.07-1.02-5.86-3.67-11.66-5.73-17.3-2.59-7.1-6.18-10.39-9.43-12.95-3.3-2.6-7.07-6.76-14.39-8.01-6.36-1.09-12.85-1.29-19.2-2.41s-12.81-2.09-19.22-2.83c-5.18-.6-10.53-.89-15.86-1.33-5.23-.44-10.81,2.88-16.12,2.49-5.27-.39-10.28-4.42-15.57-4.86-5.3-.44-10.39-2.25-15.64-2.85-5.3-.61-10.84,1.2-16.01.33-5.28-.89-10.27-3.06-15.35-4.33-5.46-.63-10.99-1.55-16.49-2.22-5.48-.66-11.32,1.53-16.82.81-5.48-.72-10.84-2.44-16.32-3.25s-10.71-3.07-16.16-4c-5.46-.92-10.99-1.33-16.41-2.4-5.44-1.07-11.52.76-16.9-.48-5.41-1.25-10.25-4.85-15.58-6.3-5.35-1.46-9.82-5.67-15.06-7.36-5.27-1.71-10.88-2.14-16.04-4.12-5.18-1.98-10.88-2.64-15.9-4.91-5.03-2.28-9.18-6.33-14.05-8.94-4.86-2.61-10.37-4.07-15.05-7.04-4.65-2.95-7.5-8.36-11.95-11.69-4.98-3.73-11.85-5.51-18.07-5.77-5.68-.25-10.3,2.49-12.4,7.73-1.65,4.11-3.49,9.68-3.76,15.16-.24,5.09.78,10.59,1.13,15.4.46,6.47.99,12.12,1.28,15.1.49,4.97,2.87,9.62,3.37,14.37.51,5.02.79,9.88,1.19,14.66h0Z"/>
  <path class="cls-1" d="m354.32,283.89c1.86-2.58,5.23-4.31,7.59-6.5,2.37-2.18,5.16-3.68,7.92-5.41,2.76-1.73,5.26-3.66,8.32-4.89,3.05-1.24,6.2-1.87,9.44-2.56s6.33-3,9.64-3.08,6.75.82,10.02,1.41c3.22.57,6.69,1.1,9.79,2.36,2.97,1.21,5.27,3.84,8.02,5.74,2.58,1.78,4.78,4,7.08,6.41,2.12,2.22,5.15,3.98,6.97,6.76,1.66,2.52,3.91,5.09,5.28,8.1,1.25,2.73.15,6.45,1.14,9.59.89,2.85,1.77,5.78,2.43,8.99.59,2.93,1.21,5.53,1.59,8.78-2.96,1.72-5.25,3.43-8.14,4.81-3.1,1.49-6.33,2.35-9.32,3.46-3.25,1.21-5.79,4.13-8.9,4.92-3.37.86-11.11.48-14.31.87-3.46.43-1.43-7.17-4.65-7.24-3.48-.07-4.9-.73-8.07-1.34-3.38-.65-4.14-.58-7.14-1.78-3.14-1.27-3.37-1.24-6.05-3.04-2.75-1.84-3.58-4.41-5.8-6.74s-13.04,1.95-14.68-.82c-1.62-2.71-5.35-6.47-6.37-9.51-.98-2.94-1.25-6.32-1.63-9.51-.35-3.24-.41-6.5-.18-9.74h0Z"/>
  <path class="cls-6" d="m257.44,406.32c-.49,4.37,5.18,2.06,8.81,1.79,5.35-.42,10.72-.11,15.99.92,1.53.3,17.35,5.56,17.24,3.95-.22-2.27-.65-4.52-1.28-6.71l-10.73-41.97c-1.37-5.36-5.5-2.87-7.29.63-2.19,4.28-3.68,8.96-6.08,13.25-2.6,4.64-5.45,9.13-8.29,13.63-2.49,3.94-6.95,8.92-8.16,13.42-.09.36-.16.72-.2,1.08h0Z"/>
  <path class="cls-1" d="m263.78,270.31c-1.39,2.8-.28,6.07-1.96,8.52-1.8,2.62-5.91,3.78-7.99,6.01-2.08,2.28-4.37,4.42-6.85,6.39-2.59,2.03-3.26,4.58-6.08,6.13-2.94,1.62-7.97,1.61-11.08,2.72-3.2,1.15-5.84-4.61-9.13-4-3.38.63-6.99-.09-10.38,0-3.44.09-5.04.46-8.41,0-3.38-.47-10.15,5.7-13.36,4.69-3.2-1.01-4.27-1.18-7.19-2.73-2.88-1.52-6.55-2.33-9.08-4.36-2.46-1.97-3.39-5.21-5.43-7.65-1.95-2.33-5.23-4.39-6.73-7.13.82-2.82,1.58-6.25,3.05-9.06,1.39-2.67,4.17-4.93,6.08-7.51,1.85-2.51,2.96-5.67,5.24-7.97,2.25-2.29,5.6-3.86,8.19-5.85,2.61-2.02,5.69-3.55,8.58-5.18,2.95-1.66,5.52-4.12,8.68-5.28,3.25-1.18,7.15-.75,10.53-1.28,3.43-.54,6.95-2.38,10.44-2.14,3.4.22,6.96,1.48,10.33,2.54,3.12.99,6.68,2.06,9.72,3.85,2.7,1.58,5.35,3.82,7.94,6.09,2.29,2.02,3.04,5.39,5.22,7.99,1.92,2.29,5.19,4.03,7,6.81,1.6,2.5,1.17,5.51,2.69,8.4h0Z"/>
  <path class="cls-5" d="m266.15,297.68c1.42-2.42,3.96-3.51,6.96-4.79,2.48-1.07,5.14-1.81,8.34-2.19,2.79-.33,5.66-.39,8.77-.25,2.89.13,6.02-.99,9.01-.5,2.93.48,5.96,1.06,8.81,1.84,2.93.81,5.29,3.21,7.98,4.3,2.9,1.17,5.49,2.45,7.88,3.9,2.78,1.69,5.47,2.96,7.26,4.94,2.22,2.46,4.06,5.01,4.15,7.78.09,2.52-1.85,4.94-3.55,7.74-1.35,2.23-3.52,3.94-5.68,6.14-1.92,1.95-2.58,5.55-4.93,7.35-2.26,1.72-4.92,3.16-7.39,4.62-2.53,1.48-5.12,3.05-7.68,4.13-2.8,1.19-5.84,1.71-8.45,2.26-3.15.67-6.05-.27-8.49-.81-2.77-.6-5.1-2.33-7.75-4.66-2.21-1.95-4.63-3.92-6.57-6.65-1.79-2.52-3.82-5.04-5.23-7.91-1.42-2.9-1.68-6.19-2.59-9.13-1-3.24-3.01-6.12-3.2-9.02-.16-3.2.66-6.37,2.35-9.1h0Z"/>
  <path class="cls-5" d="m292.13,337.25c-.47,2.8-1.58,6.11-1.81,8.98-.23,2.84,1.35,5.74,1.34,8.61,0,2.86-2.01,5.78-1.81,8.63.2,2.87,1.89,5.58,2.29,8.4.41,2.8-.1,5.76.55,8.49.65,2.75,1.7,5.42,2.59,8.08.89,2.68,1.26,5.61,2.4,8.18,1.15,2.59,3.26,4.73,4.66,7.16,1.25,2.49,3.4,4.34,5.05,6.56,1.66,2.23,2.85,4.78,4.56,6.93,2.85,2.99,2.14,3.69,5.04,6.65,1.83,2.06,5.42,2.3,7.54,4.03,2.12,1.79,4.46,3.09,6.89,4.45,2.41,1.35,4.05,4.14,6.45,5.49,2.48,1.24,5.86.61,8.48,1.58,2.61.97,4.07,2.52,6.63,3.57.12,3.55.25,3.48-.91,6.85-1.16,3.36.09,4.38-2.37,6.95-2.85-1.34-5.7-3.88-8.55-5.15-2.83-1.21-5.6-2.58-8.29-4.1-2.67-1.7-5.87-2.51-8.51-4.22-2.63-1.71-5.4-3.26-7.72-5.45-2.33-2.1-4.49-4.39-6.47-6.82-3.11-3.57-4.56-2.33-7.62-5.95-1.81-2.56-3.56-5.36-5.27-7.99-1.71-2.68-3.2-5.5-4.45-8.43-1.37-2.78-2.95-5.55-4.03-8.44-1.08-2.91-2.25-5.9-3.05-8.88-.8-2.99.12-6.41-.4-9.45-.52-3.06-2.29-5.99-2.54-9.05-.24-3.06.79-6.18.76-9.23-.03-3.06-1.23-6.17-1.03-9.22.2-3.04,2.26-5.91,2.69-8.94.44-3,.47-6,1.16-8.99,2.25-2.03,3.59-1.05,5.74.73h0Z"/>
  <path class="cls-5" d="m291.54,337.79c-.37,2.91-.52,5.45-1.09,8.29-.58,2.86-2.53,5.34-3.3,8.15s-.59,5.85-1.52,8.61c-.93,2.75-1.83,5.51-2.92,8.22-1.11,2.72-1.83,5.63-3.13,8.28-1.29,2.63-3.24,4.94-4.73,7.49-1.48,2.53-3.26,4.86-4.94,7.28-1.67,2.41-3.24,4.89-5.11,7.17-1.86,2.35-3.98,4.47-6.12,6.6-2.13,2.12-3.49,5.16-5.84,7.05-2.34,1.88-5.28,3.08-7.8,4.74s-5.48,2.58-8.14,3.99c-2.66,1.52-5.58,2.22-8.39,3.33-2.83,1.12-5.18,3.59-8.11,4.39-2.93.8-6.06.84-9.04,1.42-2.99.59-7.08,1.78-10.07,2.25-1.67-3.14.92-4.14.65-7.68s-2.68-4.08-1.37-7.38c3.47-.35,7.75-.26,11.22-.78s6.57-2.46,9.93-3.39,6.4-2.17,9.55-3.74c3.2-1.45,7.06-1.65,10.08-3.5,3.01-1.84,5.08-4.95,7.82-7.2,2.72-2.23,6.28-3.55,8.65-6.2,1.85-1.98,2.46-5,4.14-7.14,1.68-2.12,4.87-3.16,6.38-5.42,1.51-2.25,2.15-5.09,3.5-7.45,1.34-2.35,1.94-5.08,3.12-7.53,1.18-2.47,3.71-4.36,4.77-6.92,1.05-2.54.55-5.67,1.45-8.28s1.73-5.19,2.45-7.83c.73-2.67,1.72-5.55,2.24-8.24,2.05-1.88,3.4-.17,5.67,1.44h0Z"/>
  <path class="cls-3" d="m362.67,371.85c-3.84-4.03-1.81-6.77.7-11.74,1.77-3.48,2.76-1.87,6.62-2.42,3.88-.56,3.7-1.83,7.58-2.39s4.32,2.51,8.2,1.95,3.53-2.95,7.41-3.5c3.87-.56,4.05.76,7.92.2,3.88-.56,3.73-1.61,7.61-2.16,3.87-.56,4.31,2.56,8.18,2.01,3.86-.56,3.42-3.57,7.29-4.13s3.92-.19,7.79-.74c3.89-.56,4.04.52,7.92-.04,3.88-.56,3.63-2.26,7.51-2.82s4.04.53,7.91-.02c3.89-.56,3.74-1.55,7.64-2.11,3.89-.56,4.31,2.42,8.2,1.86,3.88-.56,3.73-1.66,7.6-2.21,3.88-.56,3.7-1.75,7.58-2.31,3.89-.56,3.7-1.92,7.59-2.48q3.9-.56,7.8-1.14c3.91-.56,4.13.96,8.04.39,3.91-.56,5.85-4.31,8.57-1.45,3.84,4.03,2.82,6.42.3,11.39-1.77,3.48-3.38.19-7.26.75s-3.57,2.72-7.44,3.28-4-.33-7.89.23c-3.88.56-3.77,1.3-7.64,1.86s-3.82.87-7.69,1.43c-3.88.56-3.95.06-7.83.62-3.87.56-3.73,1.52-7.59,2.08-3.86.56-4.26-2.18-8.12-1.62-3.87.56-3.75,1.33-7.62,1.89-3.89.56-3.69,1.9-7.58,2.46-3.88.56-3.87.63-7.75,1.19s-4.25-2.02-8.13-1.46c-3.89.56-3.48,3.42-7.37,3.98-3.89.56-4.18-1.5-8.07-.94-3.88.56-3.82.94-7.71,1.5-3.88.56-3.65,2.08-7.53,2.63-3.89.56-4.28-2.11-8.17-1.55-3.9.56-3.65,2.26-7.56,2.82-3.91.56-3.73.09-7.34,1.7-4.63,2.04-6.97,3.86-9.69.99h0Z"/>
  <path class="cls-5" d="m644.21,774.02c1.34,5.09.06,10.83,1.24,15.98s5.1,9.71,6.08,14.89c.99,5.2.64,10.63,1.39,15.84.76,5.25,3.09,10.32,3.57,15.56.49,5.29-2.58,10.75-2.41,16,.17,5.31.75,10.48.55,15.72-.2,5.31.28,10.56-.31,15.77-.61,5.28,1.19,10.98.12,16.12-1.08,5.19-5.33,9.59-6.91,14.61-1.59,5.03-.9,10.99-3.04,15.82-2.65,5.97-7.07,16.12-12.05,20.5-2.77,2.45-7.64,2.65-10.48.27-1.18-.99-.75-4.02-1.98-4.95-3.07-2.32-11.34,0-13.36,3.26-2.06,3.33-3.06,8.43-3.58,12.62-.5,4,3.61,9.37,1.83,13.01-3.29,6.73-8.05,13.23-12.24,19.46-2.53,3.76-7.98,5.98-10.96,10.02-2.9,3.92-4.62,8.67-8.2,11.81-3.71,3.27-7.77,5.42-12.45,6.73-4.78,1.33-9.75,4.26-15.2,4.7-5.2.42-10.53-2.94-15.74-3.27-5.47-.35-11.04,1.55-15.87.49-5.57-1.23-11.03-2.48-15.98-4.34-5.28-2-11.1-3.12-15.75-5.77-4.85-2.75-7.02-9.39-11.27-12.75-4.31-3.42-8.63-6.49-12.4-10.46-3.76-3.94-6.86-8.29-10.18-12.69-3.27-4.34-8.96-7.08-11.88-11.77-2.86-4.61-3.33-10.69-5.92-15.55-2.57-4.8-6.71-8.84-9.1-13.81-2.36-4.92-6.03-9.3-8.28-14.31-2.24-4.99-.31-11.84-2.52-16.85-2.21-5.03-7.67-8.61-9.91-13.58-2.27-5.02-4.45-10-6.83-14.88-2.42-4.97-3.8-10.39-6.4-15.12-2.41-4.4-4.81-8.82-7.6-13-2.77-4.16-5.54-8.35-8.47-12.42-2.93-4.06-8.44-6.31-11.31-10.41s-4.79-8.99-7.39-13.27c-.85-1.41-3.13-3.8-3.1-5.45.04-2.66,5.3-4.62,7.91-5.13s4.33,2.82,6.85,3.68c4.88,1.66,9.63,2.4,13.93,5.15,4.27,2.73,7.95,6.03,11.89,9.35,3.89,3.29,9.18,5.03,12.96,8.44,3.84,3.46,7.79,6.65,11.76,9.77,4.08,3.2,8.75,4.9,13.23,7.23,4.5,2.35,7.99,7.59,13.13,8.54,5.55,1.03,11.52-1.71,17.17-1.55s11.16.97,16.76.28,11.86,1.03,17.29-.52,11.09-3.64,16.19-6.06c4.81-2.28,7.72-8.09,12.11-11.09,4.4-2.98,8.25-6.38,12.16-9.98,3.91-3.61,9.64-5.52,12.99-9.65s3.16-10.65,5.88-15.22,5.45-8.79,7.47-13.7,6.74-8.93,7.99-14.1c1.18-4.92,1.67-10.06,2.2-15.02.52-4.99-2.44-10.08-2.45-15.1-.04-4.95-.29-9.89-.76-14.82-.45-4.97-.33-9.92-1.1-14.91-.76-4.94-1.78-9.79-2.76-14.73-.97-4.91-.18-10.19-1.25-15.09-1.07-4.9-2.85-9.66-3.91-14.54-1.08-4.9-2.11-9.81-3.09-14.74-.69-3.52-.09-9.59-1.11-16.3-.77-5.07-4.26-10.39-4.61-15.93-.35-5.7,2.96-11.21,3.65-16.17.88-6.41,1.49-11.45,5.22-14.19,3.3-2.42,6.3.92,11.32,7.05,2.82,3.44,8.46,6.06,11.52,11.18,2.52,4.21,1.19,11,3.74,15.91,2.37,4.55,5.81,8.68,8.1,13.5,2.28,4.78,5.9,8.95,8.02,13.7,2.23,4.98,4.36,9.85,6.31,14.45,2.26,5.32,3.31,10.67,5.05,14.95,2.87,7.09,4.41,12.55,5.26,14.82,1.86,4.91,7.03,8.75,8.91,13.9,1.81,4.97,3.01,10.3,4.79,15.47,1.73,5.02,2.49,10.47,4.15,15.64,1.65,5.09,5.66,9.53,7.2,14.74,1.54,5.16.81,11.02,2.2,16.26h0Z"/>
  <path class="cls-3" d="m516.88,432.41c-2.93,2.67-3.61-.02-7.48-.87-3.88-.84-3.74-1.47-7.62-2.32s-3.71-1.63-7.59-2.48-4.14.39-8.02-.45c-3.87-.84-3.97-.41-7.83-1.25-3.88-.84-3.27-3.62-7.15-4.48-3.87-.84-3.99-.26-7.86-1.1-3.86-.84-4.29,1.1-8.15.26s-3.88-.79-7.75-1.64c-3.89-.85-4.12.21-8-.64-3.88-.84-3.79-1.24-7.67-2.1-3.88-.84-3.33-3.33-7.21-4.18-3.89-.85-4.29,1.01-8.19.16-3.89-.85-4.09.09-7.97-.76-3.88-.84-3.78-1.3-7.67-2.15-3.88-.84-3.85-.95-7.73-1.79-3.89-.85-3.89-.88-7.78-1.72-3.9-.85-3.5-2.68-7.4-3.54-3.91-.85-3.77-1.51-7.68-2.37s-8.47,4.35-10.05.68c-2.21-5.11-.16-8.28,3.97-12.02,2.93-2.67,3.99,1.99,7.86,2.83,3.88.84,3.82,1.08,7.7,1.94,3.88.84,3.65,1.86,7.53,2.7s4.29-1.01,8.15-.17,3.88.81,7.75,1.65c3.88.84,3.77,1.37,7.65,2.21,3.87.84,4.29-1.08,8.15-.24,3.86.84,3.38,3.05,7.24,3.89,3.87.84,4.06-.04,7.93.8,3.89.85,3.87.94,7.75,1.79,3.88.84,3.57,2.27,7.44,3.13,3.88.84,4.26-.91,8.14-.06,3.89.85,3.83,1.12,7.72,1.97s3.59,2.18,7.48,3.02c3.88.84,4.07,0,7.95.84s4.27-.95,8.15-.11c3.89.85,3.34,3.37,7.24,4.22,3.9.85,3.81,1.24,7.72,2.1,3.91.85,4.66-2.55,8.57-1.7s5.34-.18,8.28,2.52c4.18,3.86.55,7.69-3.57,11.43Zm-112.77,62.04c-4.15.13-3.93-.56-6.51-3.81-2.58-3.24-.12-5.19-2.7-8.43s-4.59-1.64-7.17-4.89c-2.59-3.25-1.89-3.8-4.48-7.05-2.58-3.24-2.44-3.36-5.02-6.61-2.58-3.24-.95-4.54-3.53-7.78-2.58-3.23-5.54-.88-8.12-4.12-2.59-3.25-2.06-3.67-4.65-6.93-2.6-3.26-.85-4.64-3.45-7.9-2.61-3.27-3.99-2.16-6.6-5.43s-3.93-2.5-2.87-6.54c1.4-5.38,1.43-6.49,7-6.66,4.15-.13,2.21,2.81,4.79,6.06,2.58,3.24,3.71,2.35,6.29,5.59s.07,5.23,2.65,8.47c2.59,3.25,3.12,2.83,5.71,6.08,2.58,3.24,4.78,1.5,7.36,4.74s2.24,3.52,4.82,6.76c2.58,3.23.36,5,2.93,8.24,2.59,3.25,3.97,2.16,6.56,5.41,2.6,3.26,3.49,2.56,6.07,5.82,2.61,3.27,1.89,3.84,4.49,7.1s4.6,2.42,5.3,6.53c.91,5.27-3.31,5.2-8.87,5.37h0Z"/>
  <path class="cls-2" d="m294.42,563.64c-5.54,0-11.21,3.36-16.47,2.84-5.54-.54-10.28-5.95-15.45-6.96-5.49-1.06-11.75,1.76-16.76.32-5.44-1.55-10.02-5.34-14.84-7.16-5.42-2.05-9.76-5.59-14.28-7.72-5.53-2.62-12.29-1.63-16.29-3.94-8.51-4.92-10.88-10.16-11.08-10.32,5.04-6.66,5.34-6.41,10.48-12.99,2.21-.17,5.02,2.06,13.1,6.71,4.67,2.76,9.47,5.29,14.39,7.59,4.6,2.1,9.91,3.13,15.42,5.04,4.91,1.71,8.81,7.9,14.36,9.24,5.12,1.23,11.3-1.71,16.9-.95,5.26.7,10.55,1.73,16.17,1.86,5.32.12,10.77.89,16.36.38,5.3-.48,10.64-1.56,16.15-2.71,5.2-1.08,11.28,0,16.63-1.75,5.04-1.66,9.08-6.57,14.23-8.9,4.83-2.19,10.58-4.56,15.49-7.39,6.29,5.5,5.24,7.06,6.76,15.28-5.15,2.98-9.57,4.59-14.65,6.91-5.4,2.46-10.8,4.16-16.11,5.94-5.62,1.89-10.43,6.14-15.92,7.35-5.77,1.27-11.57,2.75-17.15,3.35-5.84.65-11.82-2.01-17.44-2.01h0Z"/>
  <path class="cls-5" d="m305.07,426.06c-2.94-1.71-5.88-3.76-8.79-4.99-3.13-1.33-6.12-2.94-9.12-3.8-3.3-.94-6.75-.91-9.81-1.38-3.45-.54-6.78-.09-9.8-.2-3.71-.13-7.09-1.37-9.89-1.13-5.87.49-9.64,2.37-9.74,2.4-1.54-5.35-2.37-5.16-3.65-10.58.43-.12,4.91-.52,10.5-1.13,2.74-.3,5.9-.36,9.55-.37,2.97,0,6.15-.32,9.59.03,3.2.27,6.38.71,9.52,1.32,3.03.63,5.85,2.27,9.04,3.3,2.96.95,6.02,1.69,9.07,3.05,2.85,1.27,6.23,1.95,9.11,3.63,1.11,5.58-1.51,6.07-5.6,9.85h0Z"/>
  <path class="cls-4" d="m416.84,333.57c2.65-3.13,4.22-6.83,5.69-10.71,1.42-3.75,3.31-7.56,3.31-11.81,0-4.81-1.35-9.44-3.12-13.64-1.83-4.34-4.7-8.13-8.04-11.4s-7.9-4.39-12.32-6.18c-4.26-1.74-8.26-3.21-13.16-3.21-4.27,0-8,.66-11.8,2-3.94,1.38-8.45,1.79-11.62,4.34-3.2,2.58-5.45,6.27-7.59,9.77-2.1,3.43-3.19,7.18-4,11.25,2.56,4.14,5.44,7.79,8.91,11.21,3.44,3.39,6.37,7.71,10.63,10.26,4.11,2.46,8.64,5.2,13.43,6.73,4.51,1.46,10.03-.37,15.11.17,4.7.5,9.47,1.58,14.58,1.22h0Z"/>
  <path class="cls-7" d="m608.18,683.14c1.57,5.03,2.03,10.4,3.57,15.44s3.53,9.94,5.03,14.99c1.5,5.05,5.91,9.28,7.35,14.35,1.44,5.07.61,10.79,1.96,15.88,1.35,5.1,4.39,9.8,5.63,14.92,1.24,5.13-.94,11.04.16,16.19,1.1,5.16,3.38,10.07,4.33,15.24.95,5.19,1.3,10.47,2.07,15.67.76,5.21,3.99,10.15,4.55,15.39.56,5.24.36,10.63.68,15.88.34,5.25-1.39,10.62-1.3,15.89.09,5.26,2.39,10.58,2.21,15.87-.19,5.24-1.57,10.51-2.05,15.79-.44,4.86-3.48,9.29-4.31,14.01-.84,4.74-1.24,9.25-3.35,13.67-.86,1.8-2.62,7.03-5.38,11.1-3.27,4.85-8.69,9.51-10.6,5.36-1.15-2.49-2.29-11.31-5.11-18.91-3.05-8.24-6.3-16.92-10.53-15.41-2.93,1.05-1.65,5.78-1.7,8.88-.07,5.34-3.22,10.64-3.47,16.05-.25,5.37,3.16,11.06,2.6,16.42-.56,5.37-2.26,10.73-3.26,16-1.01,5.31-4.59,9.99-6.2,15.1-1.62,5.14-.09,11.67-2.45,16.52-2.34,4.8-8.43,7.59-11.62,12.01-3.09,4.26-6.32,8.33-10.33,12.16-1.17,1.22-2.76,1.96-4.45,2.05-4.62.52-6.7-3.93-6.65-8.58s-1.16-8.16-4.81-11.06c-2.91-2.31-5.66-3.46-8.62-1.21-3.89,2.98-7.85,4.06-10.39,6.62-2.42,2.43-3.65,5.7-8.73,7.18-4.88,1.41-10.96,5.13-15.77,3.46-3.94-1.37-8.47-4.92-11.21-8.06-3.89-4.46-6.16-10.79-8.22-16.26-2.02-5.37.86-12.15-.19-17.96-1.04-5.74-5.07-10.99-5.96-16.66-.81-5.14-1.54-10.28-2.58-15.39-1.04-5.1-1.46-10.33-2.62-15.41-1.16-5.08-3.83-9.82-5.01-14.89-1.17-5.08.35-10.75-.74-15.84-1.08-5.1-2.65-10.06-3.53-15.18-.88-5.13-4.62-9.9-5.19-15.08-.57-5.17,2.66-10.63,2.51-15.85-.16-5.45-1.55-10.83-1.25-16.25.3-5.43-.45-10.98.17-16.39.61-5.39,4.8-10.31,5.6-15.68.8-5.37.09-10.95.93-16.32.85-5.37,3.2-10.53,3.97-15.89.77-5.38.34-10.97.9-16.36.52-5.05,2.11-10.08,2.42-15.15.32-5.06.3-10.2.48-15.28.18-5.07-.63-10.19-.52-15.26l.32-15.22c.11-5.07,1.59-10.08,1.77-15.16s-4.08-10.35-3.77-15.41c.31-5.05,2.92-9.98,3.44-15.03.52-5.05.78-10.15,1.58-15.15.8-5.02,4.63-9.36,5.76-14.3,1.14-4.96-1.42-10.86.12-15.69,1.54-4.84,2.53-10.07,4.52-14.74,1.99-4.66,5.94-8.53,8.45-12.96,2.16-3.8,5.5-6.88,8.31-10.23,2.76-3.32,6.07-6.13,9.8-8.3,5.16-3.05,9.58-5.14,14.21-5.2,5.22-.07,11.29-.42,15.84,2.44,4.09,2.58,6.75,8,10.29,12.24,3.17,3.79,4.63,9,7.36,13.62,2.59,4.39,4.17,9.24,6.37,13.97,2.21,4.77,5.1,9.1,6.92,13.81,1.97,5.13,5.69,9.36,7.18,13.9,1.91,5.82.61,11.78,1.73,15.63,1.43,4.9,3.36,9.71,4.85,14.62,1.48,4.89,5.08,9.15,6.61,14.05,1.52,4.89,3.01,9.78,4.54,14.68,1.57,4.91,3.26,9.76,4.79,14.67h0Z"/>
  <path class="cls-5" d="m554.14,777.34c3.67,4.14,6.63,8.93,10.12,13.22,3.49,4.29,7.02,8.58,10.23,13.09,2.27,3.16,6,7.86,9.72,13.21,3.09,4.44,6.66,9.13,9.03,13.83,2.93,5.8,4.69,11.91,3.88,16.18-1.06,5.62-6.82,8.78-13.91,9.31-5.8.42-11.62.07-17.33-1.04-5.43-1.07-11.54-1.75-17.03-3.54-5.73-1.87-11.58-3.81-16.39-5.95-6.86-3.06-9.67-10.13-12.22-12.43-4.21-3.81-11.97-4.11-15.74-8.32-3.78-4.21-4.05-11.38-7.43-15.92-3.38-4.53-8.8-7.67-11.84-12.45-3.02-4.78-2.69-11.5-5.42-16.46-2.73-4.96-6.03-9.52-8.51-14.6-.77-1.58-2.76-7.43-5.99-14.8-1.96-4.45-4.52-9.27-6.51-14.54-1.92-5.05-4.79-9.79-6.17-14.73-1.64-5.9-1.16-11.2-1.12-15.58.05-6.67.12-8.87,6.9-7.73,1.6.27,3.73-1.33,5.08-.44,4.16,2.75,6.25,8.54,10.38,11.5,4.06,2.92,10.91,2.18,14.91,5.29,3.97,3.08,5.99,8.63,9.88,11.87,3.88,3.22,9.07,4.93,12.83,8.28,3.78,3.37,4.91,9.55,8.55,13.01,3.68,3.49,10.63,3.59,14.15,7.15,3.58,3.62,4.37,9.85,7.75,13.51,3.39,3.62,8.88,5.35,12.18,9.07h0Z"/>
  <path class="cls-4" d="m245.59,294.6c.61-2.45,0-5.77,0-8.39,0-4.35-1.08-8.38-2.69-12.17-1.67-3.92-2.97-8.39-6.01-11.35s-7.86-3.69-11.88-5.32c-3.88-1.57-7.8-3-12.26-3s-8.71.66-12.59,2.23c-4.02,1.63-8.04,3.61-11.08,6.55-3.08,3.05-5.51,6.65-7.18,10.6-1.61,3.78-.39,8.11-.39,12.45,0,4.9.27,8.8,2.29,12.95,3.96,1.64,7.56,2.67,11.76,3.48,4.19.81,8.31,2.92,12.63,2.9,4.25-.02,8.82.06,13.08-.8,4.14-.84,8.09-3.17,12.11-4.81,3.9-1.57,8.56-2.98,12.21-5.33h0Z"/>
  <path class="cls-5" d="m233.67,300.07c.39-1.7,0-4.01,0-5.83,0-3.02-.69-5.83-1.7-8.46-1.06-2.72-1.88-5.83-3.8-7.89s-4.98-2.57-7.52-3.7c-2.45-1.09-4.94-2.09-7.76-2.09s-5.52.46-7.97,1.55c-2.55,1.13-5.09,2.51-7.01,4.56-1.95,2.12-3.49,4.62-4.54,7.37-1.02,2.62-.25,5.64-.25,8.66,0,3.41.17,6.11,1.45,9,2.51,1.14,4.78,1.86,7.44,2.42,2.65.56,5.26,2.03,7.99,2.01,2.69-.02,5.58.04,8.28-.55,2.62-.59,5.12-2.2,7.67-3.34,2.47-1.09,5.42-2.07,7.73-3.71h0Z"/>
  <path class="cls-7" d="m424.42,912.21c1.95,4.43-.5,10.9,1.6,15.24,2.12,4.36,8.63,6.43,10.98,10.64,2.36,4.22,1.26,10.54,3.96,14.56,2.68,4.01,8.57,5.65,11.67,9.4,3.05,3.69,2.91,10.48,6.44,13.88,3.58,3.44,11.52,3.34,16.46,7.16,4.42,3.42,6.78,10.43,11.8,13.16,5.2,2.83,11.16,5.25,16.51,6.29,5.78,1.12,11.93-.85,17.28-3.08,6.91-2.89,11.02-9.71,16.26-15.04,3.57-3.63,10.38-4.44,13.89-8.41,3.41-3.86,3.41-10.67,6.66-14.81,3.2-4.09,8.14-6.88,11.06-11.22,2.93-4.33,5.99-8.62,8.55-13.15,2.58-4.57,5.95-8.86,8.03-13.59,2.12-4.81,2.97-10.21,4.47-15.16,1.52-5.02,4.61-9.91,5.38-15.03.78-5.15-2.91-10.71-3.01-15.93-.09-5.15,2.38-10.66,1.32-15.85-1.01-4.98-4.21-9.57-6.23-14.55-1.92-4.75-3.62-9.58-6.02-14.04-2.41-4.5-4.74-9.08-7.56-13.32-2.81-4.23-6.12-8.16-9.26-12.19-3.12-4.01-8.41-6.17-11.78-10.01-3.35-3.82-3.57-10.5-7.08-14.21-3.5-3.69-6.7-7.76-10.29-11.37-3.6-3.62-7.51-6.94-11.13-10.52-3.63-3.59-10.23-4.19-13.79-7.79-3.6-3.63-6.41-8.06-9.87-11.74-4.26-4.53-7.32-10.3-11.84-14.56-4.54-4.27-10.15-7.22-15.4-10.58-4.71-3.02-9.11-6.25-14.02-8.02-5.18-1.87-10.48-3.62-15.77-4.21-5.4-.6-11.12-1.48-16.47-.88-5.34.61-11.19,1.31-16.33,3-5.1,1.68-8.78,7.1-13.53,9.72-4.7,2.59-10.7,3.46-14.92,6.86-4.19,3.37-6.11,9.24-9.69,13.28-3.57,4.03-9.43,6.49-12.26,11.08s-1,11.45-2.95,16.48c-1.95,5.01-8.47,8.76-9.42,14.09-1,5.69,1.76,11.19,3.15,15.85,1.48,4.98,4.8,8.91,8.06,13.09,3.12,4,7.72,6.56,11.6,10.15,3.89,3.62,4.38,10.45,7.68,14.61,3.29,4.16,6.52,8.17,9.34,12.67,2.83,4.51,5.28,9.12,7.76,13.78,2.4,4.5,3.73,9.43,5.89,14.08,2.15,4.63,9.17,7.1,11.19,11.81,2.01,4.7.19,11.03,2.17,15.74,2.02,4.74,7.43,7.97,9.49,12.64h0Z"/>
  <path class="cls-5" d="m467.88,832.42c4.04-3.12,6.39-8.48,9.26-13,2.68-4.23,7.09-8.24,8.85-13.31,1.65-4.78,2.72-10.29,3.65-15.5.9-5.07,1.4-10.53,1.71-15.73.3-5.25-4.37-10.49-4.61-15.59-.24-5.39,1.24-10.63.5-15.53-.85-5.58.38-11.35-.99-15.8-.73-2.36-2.69-4.99-3.98-7.23-2.44-1.97-6.19-2.48-8.84-4.18-1.63-1.04-2.29-3.79-3.95-4.68-.12,0-.56,3.17-.67,3.18-3.2.39-5.04,1.78-7.56,3.8-3.48,2.8-7.63,6.25-11.69,11.27-3.23,3.99-7.58,7.69-11.12,12.3-3.31,4.33-5.88,9.48-9.41,13.77-3.61,4.38-7.99,8.07-11.78,11.82-4.21,4.18-8.61,7.68-12.99,10.3-5.18,3.08-10.48,5.8-15.78,5.46-4.92-.32-10.19-2.97-15.13-7.36-4.62-4.1-7.3-9.82-10.34-15.2-3.01-5.32-6.84-10.3-9.64-15.71-2.78-5.37-5.85-10.67-9.91-15.17-4.17-4.64-9.27-6.38-15.24-8.13-4.47-1.31-10.67-6.63-16.72-5.45-6.03,1.17-10.56,6.78-13.55,11-2.75,3.86-5.09,9.95-5.46,16.78-.36,6.41,1.37,13.24.52,18.06-.97,5.48-2.45,11.03-1.6,16.45.86,5.5,2.08,11.34,4.61,16.2,2.58,4.95,8.53,7.27,12.61,10.93,4.08,3.65,7.83,7.04,13.2,8.79,4.98,1.63,10.29,4.72,16.19,4.18,1.8-.16,3.31-.73,5.09-.49,2.63.36,6.54-1.3,8.7.25,4.1,2.93,7.8,6.78,12.01,9.83,4.22,3.06,8.19,5.36,13.08,6.98,5.34,1.78,9.88,5.37,14.21,3.94,4.29-1.41,7.58-6.77,12.62-7.77,5.35-1.07,10.38,2.42,15.69,3.91,5.18,1.46,10.65,2.91,15.93,3.63,6.07.83,11.79-.02,16.69-1.07,5.66-1.25,11.62-2.66,15.85-5.93h0Z"/>
  <path class="cls-3" d="m202.9,350.08c-3.33,2.06-4.19-2.79-7.78-4.33-3.6-1.54-3.59-1.57-7.19-3.11s-2.84-3.34-6.44-4.88c-3.58-1.53-4.17-.14-7.75-1.67-3.59-1.54-3.62-1.47-7.21-3-3.6-1.54-3.62-1.51-7.22-3.06-3.59-1.54-3.25-2.32-6.85-3.86s-4.02-.52-7.61-2.06-3.22-2.42-6.81-3.95c-3.61-1.55-3.6-1.56-7.21-3.11-3.6-1.54-4.78,1.2-8.38-.34s-3.19-2.51-6.79-4.04c-3.61-1.55-2.93-3.13-6.55-4.67-3.61-1.55-3.33-2.19-6.94-3.74-3.61-1.54-3.85-.97-7.46-2.51-3.6-1.54-4.27.03-7.87-1.51-3.62-1.55-2.74-3.61-6.36-5.15-3.63-1.55-5.13,1.98-8.76.44-3.64-1.55-3.58-1.67-7.22-3.22s-6.63-.87-7.47-4.73c-1.17-5.44,1.08-6.81,5.82-9.74,3.33-2.06,3.25.62,6.84,2.16,3.6,1.54,4.37-.26,7.98,1.28s2.53,4.04,6.14,5.58c3.58,1.53,4.01.52,7.59,2.05,3.59,1.54,3.97.67,7.56,2.2,3.6,1.54,3.26,2.34,6.87,3.87,3.59,1.54,2.69,3.65,6.28,5.19s4.96-1.67,8.55-.14c3.59,1.54,3.62,1.47,7.21,3.01,3.61,1.55,3.38,2.09,6.99,3.63,3.6,1.54,2.94,3.09,6.54,4.63s3.89.88,7.49,2.42c3.61,1.55,4.14.31,7.75,1.86s3.56,1.66,7.17,3.21c3.61,1.54,2.45,4.26,6.06,5.79,3.6,1.54,3.85.95,7.45,2.5,3.62,1.55,3.72,1.32,7.34,2.87,3.63,1.55,3.39,2.11,7.01,3.65,3.64,1.55,3.52,1.82,7.16,3.38s5.09-1.1,7.4,2.11c3.65,5.06,1.44,8.07-3.3,11h0Zm-7.05,25.94c-2.45,3.12-3.03,2.1-6.99,1.91-3.97-.18-3.95-.6-7.91-.77s-3.95-.6-7.91-.78-3.97.03-7.93-.16c-3.97-.18-3.85-2.72-7.82-2.91-3.97-.18-4.03,1.17-7.99.99-3.96-.18-3.87-1.99-7.83-2.17-3.95-.18-3.95-.22-7.9-.4-3.96-.18-4.12,3.42-8.07,3.23-3.97-.19-4,.43-7.98.24-3.97-.18-3.8-3.75-7.76-3.94-3.97-.18-4.13,3.31-8.09,3.13-3.97-.19-3.82-3.43-7.81-3.62-3.97-.19-4.12,2.94-8.08,2.75-3.97-.18-3.8-3.9-7.76-4.09-3.96-.18-4.06,2.11-8.03,1.94-3.98-.19-3.86-2.77-7.84-2.95-3.98-.19-4.05,1.04-8.03.86-4-.19-3.98-.47-7.99-.65-4-.19-5.9,4.23-8.09.87-3.04-4.66-1.85-5.94,1.59-10.33,2.45-3.12,2.86.6,6.82.78,3.97.18,4.1-2.67,8.07-2.48,3.97.18,3.9,1.52,7.87,1.7s3.89,1.91,7.84,2.09c3.97.18,4.13-3.28,8.09-3.1s3.82,3.37,7.79,3.54c3.96.18,4.05-1.79,7.99-1.61l7.9.36c3.96.18,3.88,1.88,7.83,2.06,3.97.19,3.94.83,7.91,1.01,3.97.18,4.12-3.12,8.08-2.94s3.88,2.09,7.84,2.27c3.97.19,3.97.43,7.94.61,3.97.19,3.91,1.47,7.88,1.65s4.1-2.71,8.07-2.52c3.96.18,4-.69,7.96-.52,3.98.19,3.81,3.82,7.8,4,3.98.19,4.11-2.43,8.09-2.25,4,.19,4,.12,8,.3s3.45,1.1,6.83,3.25c4.6,2.94,3.06,4.22-.38,8.61h0Zm-64.63,82.96c-5.34-1.59-6.8-2.57-6.78-8.14,0-4.15,4.37-.95,7.71-3.42,3.33-2.46,1.32-5.16,4.66-7.62,3.33-2.46,4.86-.41,8.18-2.88,3.34-2.47,4.01-1.56,7.35-4.04,3.33-2.47,2.97-2.96,6.3-5.43s1.53-4.89,4.86-7.36c3.33-2.46,3.75-1.89,7.08-4.35,3.34-2.48,4.54-.85,7.89-3.33,3.35-2.48,3.69-2.03,7.03-4.5,3.36-2.49,3.14-2.78,6.5-5.27s2.2-8.69,6.2-7.5c5.34,1.59,8.21,4.69,8.19,10.25,0,4.15-5.96,1.55-9.29,4.02-3.33,2.46-1.56,4.85-4.89,7.31-3.33,2.46-4.88.36-8.22,2.83-3.34,2.47-2.32,3.85-5.66,6.32-3.33,2.47-4.37,1.07-7.71,3.54s-3.2,2.64-6.54,5.11c-3.33,2.46-3.62,2.07-6.94,4.53-3.34,2.48-1.89,4.44-5.23,6.91-3.35,2.48-4.19,1.35-7.53,3.83-3.36,2.49-3.45,2.3-6.22,5.43-2.79,3.14-2.93,4.95-6.94,3.76h0Z"/>
  <path class="cls-7" d="m273.71,742.07c1.68,4.52,4.39,8.57,7.46,12.29,3,3.62,5.59,7.35,9.94,9.77.23,6.23,4.45,11.08,7.14,16.7s3.42,13.11,8.13,17.22,12.04,4.41,17.98,6.31,12.11,6.12,18.33,5.52c2.8-.28,5.66-3.45,8.24-2.34,1.98.85,4.29,1.91,5.8,3.44,3.34,3.47,7.21,6.38,11.46,8.64,4.43,2.33,8.38,6.7,13.33,7.12,4.7.41,9.59-2.32,14.62-3.94,3.18-1.03,6.31-3.36,9.64-3.67,4.54-.42,8.31,5.33,12.67,6.65,4.23,1.28,9.44-.36,13.86-.1,4.46.26,9.26.8,13.5-.6,4.37-1.46,7.24-5.75,10.66-8.83,3.39-3.06,7.27-5.77,9.59-9.71,2.69-4.58,6.7-9,8.24-14.14,1.53-5.07.93-10.91,1.81-16.18.88-5.32,1.23-10.72,1.91-15.88.76-5.75,1.39-11.62,1.23-17.42-.17-5.8-.28-11.79-1.39-17.48s-5.14-10.57-7.21-15.99c-1.92-5.03-4.24-9.64-6.94-14.29s-5.6-8.92-8.98-13.1-5.55-9.45-9.51-13.09-9.68-4.93-14.14-7.94c-4.46-3.01-6.97-9.59-11.84-11.89s-11.43-.4-16.6-1.89-10.28-1.99-15.62-2.64-10.44-1.65-15.82-1.48c-5.38.18-10.81-.69-16.1.28s-10.53,2.38-15.61,4.13-8.92,6.06-13.68,8.56-10.77,2.83-15.08,6.07c-3.75,2.82-5.39,7.99-8.78,11.21s-7.99,5.15-11.11,8.65-5.17,7.84-8.1,11.49c-3.63,4.5-5.1,9.58-6.9,15.1-1.79,5.5-2.31,10.52-2.24,16.3.04,5.85-1.89,11.76.11,17.14h0Zm245.95,464.08c5.95-4.32,12.96-6.23,19.81-8.84,5.14-1.96,9.26-7.39,14.68-8.77,5.4-1.37,11.63,1.92,17.13,1.29,5.38-.62,10.8-.79,16.21-.51,5.63.27,11.39-2.11,16.71-.72,5.4,1.41,10.33,4.11,15.19,6.85,4.87,2.66,9.33,6.01,13.24,9.94,3.69,3.78,7.6,7.86,10.5,12.99,2.76,4.88,5.26,10.12,6.04,15.34.8,5.37-.09,11.12-1.08,16.44-.99,5.28-3.46,10.31-5.93,15.13-2.46,4.81-6.41,8.53-10.07,12.48-3.69,4-6.91,8.52-11.52,11.24-4.62,2.73-8.63,7.26-13.61,9.29-4.97,2.03-10.68,2.84-15.9,4.18-5.21,1.32-11.16-1.47-16.5-.85s-10.43,1.05-15.81.93-10.39-1.06-15.69-1.92c-5.32-.86-11.02.54-16.14-1.08-5.12-1.63-10-3.93-14.82-6.33-4.56-2.28-7.1-7.04-10.81-10.54-3.74-3.53-10.08-5.08-12.21-9.75-2.21-4.86-2.24-10.62-2.04-15.8.2-5.05,1.88-10.16,3.8-15.15,1.83-4.87,4.18-9.54,7.01-13.91,2.9-4.39,5.14-9.58,8.61-13.25,3.79-4.04,9.4-5.89,13.23-8.68h0Z"/>
  <path class="cls-2" d="m38.15,657.61c-1.04,6.95-2.83,16.25,3.62,19.02,2.84,1.23,7.11,2.1,10.04,1.11,6.67-2.26,12.52-6.67,18.98-9.48s16.41-6.46,20.1-.46c1.47,2.4,2.53,6.3,2.82,9.1.52,4.93-4.39,10.45-3.91,15.45.47,4.96,6.13,9.41,6.67,14.37.55,4.97.79,9.89,1.55,14.81.76,4.97-1.74,10.48-.65,15.32,1.11,4.9,2.75,9.75,4.33,14.45,1.6,4.74,4.96,8.77,7.18,13.24,2.21,4.44,2.53,10.17,5.49,14.28,3.85,5.35,11.3,3.81,18.21,2.69,5.64-.91,11.76-3.38,17.92-4.43,6.36-1.08,11.52,2.68,16.93,5.52,3.7,1.94,7.46,2.81,10.43,5.74,2.93,2.9,7.99,3.98,10.64,7.14,3.12,3.75,4.05,9.34,7.18,13.09s5.82,7.87,8.94,11.62c1.73,2.07,5.41,1.71,7.81,2.93,4.61,2.35,8.86,1.31,13.44-1.09,5.69-2.98,11.52-3.79,13.6-7.06,2.61-4.09,3.81-10.07,3.01-15.67-.6-4.16-7.13-7.91-8.4-13.47-1.19-5.19-.41-10.78-1.94-15.87s-3.51-10.02-5.18-15.07c-1.66-5.05-3.01-10.22-4.61-15.28-1.69-5.36-2.76-11.33-6.67-15.36s-11.13-6.69-16.06-3.98c-2.11,1.15-4.11,1.36-6.41,2.04-4.5,1.34-6.54-1.06-9.2-4.92-2.79-4.06-7.27-7.04-9.08-11.53s.27-10.07-.84-14.85c-1.09-4.69-7.34-8.47-8.05-13.32-.7-4.8.44-9.91-.17-14.73-.61-4.85.42-9.91-.37-14.67-1.09-6.6-4.86-11.86-10.38-15.63-4.72-3.22-7.51-3.51-11.35-.2-3.19,2.75-5.32,7.67-8.66,10.94-3.57,3.49-8.26,3.14-12.83,2.98-4.47-.16-9.6.27-11.95-3.62-2.14-3.54.84-9.54.04-13.55-1.15-5.76-4.42-11.06-5.19-16.88-.76-5.82-.54-11.69-.93-17.55-.39-5.85.64-11.65.64-17.52,0-2.78-1.11-6.16-2.21-8.72-2.72-6.28-13.64-9.92-19.95-7.24-4.59,1.95-6.11,9.12-9.99,12.91-3.52,3.43-6.02,7.37-8.99,11.89-2.75,4.18-7.55,7.23-9.84,12-2.21,4.61-6.73,8.48-8.53,13.34-1.81,4.91-.03,11.06-1.44,15.93-1.5,5.19-1.73,10.43-2.8,15.21-1.15,4.97-2.14,9.98-2.95,15.01h0Zm271.96,3.78c-3.75,2.82-5.47,8.07-8.86,11.29s-5.78,7.22-8.89,10.73c-3.11,3.5-8.88,4.73-11.82,8.37-3.41,4.23-2.54,11.09-4.33,16.82-1.67,5.35-7.52,10.32-7.65,16.12-.12,5.79,3.6,11.5,5.14,16.91,1.6,5.67,3.5,11.13,7.06,15.48,3.57,4.37,8.4,8.2,14.08,10.31-.96-4.35-.07-9.37-.51-13.81-.44-4.45-3.19-8.81-2.75-13.26.51-5.06,4.99-8.98,6.69-13.7s-.05-11.07,2.63-15.37c2.65-4.23,7.58-6.98,11-10.73,3.38-3.7,5.82-8.6,9.75-11.77,3.93-3.16,9.24-4.51,13.56-7.07,4.38-2.59,8.48-5.73,13.06-7.64,4.7-1.88,9.53-3.39,14.47-4.52,5.01-1.19,10.11-1.99,15.25-2.39,5.1-.42,10.25.15,15.4.44,5.12.28,10.2.83,15.27,1.7s10.83-.75,15.77.63c4.99,1.39,9.9,3.59,14.66,5.39,1.09.41,1.6,2.73,2.72,2.4,2.26-.66,2.49-3.73,2.15-6.06-.18-1.2-.26-2.41-.51-3.55-3.87-3.43-8.77-5.44-13.08-8.28-4.32-2.84-8.79-5.03-13.48-7.2s-9.34-3.8-14.32-5.23c-5.18-1.49-9.78-5.94-15.12-6.59-5.34-.65-11.03-1.6-16.41-1.42s-10.74,2.81-16.03,3.78c-5.29.98-10.42,2.81-15.51,4.55-5.09,1.75-9.39,5.11-14.15,7.61-4.77,2.51-10.96,2.83-15.27,6.07h0Zm35.48,133.04c.7,1.16,2.99,2.57,4.17,3.23,2.81,1.57,9.32-1.35,10.7-4.26s1.63-7.2,1.57-10.43c-.1-4.97-1.92-9.86-1.06-14.75s-.24-10.61,1.56-15.24c1.51-3.9,5.05-6.93,5.45-11.1,1.03-10.77-3.64-14.27-8.64-11.91-4.57,2.14-10.42,8.78-12.56,13.42-2.36,5.12-1.34,11.54-2.43,17.06-1.09,5.6-5.22,11.4-4.47,16.97.74,5.48,2.68,11.96,5.72,16.99h0Zm65.37,9.98c.55.23,1.36-.88,1.95-.99,1.16-.22,3.07-.6,3.4-1.73.52-1.78-3.02-8.5-4.47-15.99-1.02-5.29-.99-11.22-2.69-15.82-2.82-7.57-7.61-13.44-11.44-8.57-.93,1.19.19,3.92.04,5.42-.36,3.88,1.5,8.62,2.13,13.65.58,4.62,1.08,9,3.04,13.02,2.11,4.34,3.73,9.2,8.05,11.02h0Z"/>
  <path class="cls-5" d="m431.03,945.2c4.29,7.83,8.98,15.43,14.07,22.77,4.78,6.85,9.92,13.5,16.01,19.22,10.18,9.56,22.73,17.42,36.16,21.45,21.38,6.4,42.51,15.24,64.36,5.02,12.9-6.03,23.08-16.85,30.65-28.91,3.36-5.35,4.03-10.3,6-15.97,1.4-4.02,4.61-6.86,6.37-10.9,2.1-4.82.66-11.09,2.27-16.14,1.66-5.22,2.41-10.16,3.12-15.21.79-5.65,1.32-10.2.32-15.04-1.1-5.38-1.22-10.59-5.36-14.15-2.53-2.17-7.19-1.93-8.47,1.15-.56,1.34-.42,2.83-.36,4.27.24,5.85-.59,12.66-4.43,17.07-3.73,4.29-9.91,7.8-15.34,9.5-5.54,1.73-11.75-.46-17.54-.79-5.72-.29-11.41-1.04-17-2.25-5.51-1.23-11.37-.52-16.03-2.47-5.02-2.11-8.08-7.62-12.52-10.45-4.42-2.81-10.19-3.74-14.45-7.12-4.01-3.19-7.93-6.78-12.16-10.36-3.97-3.37-6.55-8.14-9.87-12.15-3.73-4.5-9.87-8.3-11.52-13.88s-1.29-12.38-.79-18.18c.5-5.8,3.68-11.38,6.43-16.53,3.15-5.93,6.83-10.47,9.46-15.36,2.71-5.03,2.87-10.41,2.93-17.36.02-2.08.63-21.11-2.93-15.33-.43.69.23.76.22,1.56-.05,5.48-3.92,9.96-5.25,14.23-1.58,5.09-3.01,9.57-6.06,13.11-3.24,3.76-6.68,7.55-11.14,9.79-4.27,2.13-9.43,2.52-14.45,3.46-4.72.88-9.61,3.44-14.66,3.43-5.02-.05-10.03-.44-14.99-1.17-1.48-.21-9.43-4.58-17.31-4.4-8.82.2-19.23,4.49-17.75,7.18,2.46,4.47,5.17,8.72,7.41,13.32,2.24,4.58,4.34,9.18,6.44,13.84,2.09,4.66,7.82,7.74,9.83,12.44,2.02,4.69.24,11.02,2.26,15.72,8.03,18.67,16.17,37.65,26.08,55.6h0Z"/>
  <path class="cls-2" d="m176.75,1188.37c.81.04,1.68-1.59,2.49-1.79,4.69-1.09,9.78-4.36,11.66-9.99,1.4-4.22.32-10.02.59-15.5.24-4.89,2.09-10.22,1.71-15.26-.4-5.28-.54-10.71-1.32-15.3-1.08-6.38-4.22-11.53-5.34-14.48-2.25-5.91-6.94-10.71-9.99-16.25-3.04-5.51-4.37-11.84-6.78-17.65-2.2-5.29-4.71-10.38-6.25-15.88-1.53-5.48-1.45-11.32-2.61-16.92-1.16-5.58-3.76-10.87-4.83-16.5-1.04-5.62-2.17-11.22-3.4-16.81-1.24-5.58-.13-11.91-1.84-17.36-1.7-5.43-7.34-9.47-9.77-14.68-2.13-4.57-2.03-10.6-5.04-14.63-3.04-4.08-8.45-7.77-13.5-8.35-6.86-.78-9.38,4.13-9.48,9.85-.08,4.39-1.04,10.46.41,15.51,1.77,6.13,6.24,11.08,6.83,13.74,1.08,4.92,4.52,9.31,5.63,14.22s-1.64,10.71-.51,15.61c1.13,4.91,5.34,9.11,6.49,14.01s-1.93,10.82-.76,15.72,5.83,8.95,7.03,13.85c1.21,4.95,3.81,9.48,5.17,14.39,1.35,4.9,2.12,9.94,3.56,14.83,1.43,4.89-.24,10.69,1.22,15.56s4.41,9.3,5.84,14.19c1.37,4.66,1.17,10.89,2.26,17.26.97,5.71,3.8,11.34,5.26,16.79,1.69,6.32,2.25,13.16,5.58,16.91,2.17,2.48,6.48,4.75,9.72,4.91h0ZM597.97,168.1c.77,3.55,4.45,6.36,5.19,9.66.82,3.59-1.07,7.85-.16,11.41.92,3.56,6.54,5.85,7.53,9.39,1,3.54-2.29,8.31-1.24,11.83,1.05,3.52,2.96,6.8,4.05,10.31s.6,7.52,1.7,11.02,5.42,6.01,6.51,9.51c1.09,3.51-1.34,8.08-.28,11.6s3.49,6.6,4.49,10.14c.65,2.28,5.15,4.5,6.43,8.17,1.01,2.94-.22,6.89.6,10.09.86,3.33,4.3,6.45,4.38,9.45.1,3.71-3.89,6.06-5.99,8.2-2.68,2.73-4.7,2.25-8.05,1.53-3.36-.72-7.02.92-9.97,1.02-2.85.09-3.82.34-5.26,5.16-1.34,4.51-1.81,8.97-.61,13.53.95,3.58,4.43,6.49,5.38,10.05s1.37,7.27,2.31,10.83-1.32,7.97-.4,11.53c.93,3.57,1.31,7.26,2.21,10.82.91,3.57,6.13,6.08,6.99,9.66s-3.5,8.38-2.69,11.97,6.11,6.19,6.86,9.8c.76,3.6,1.6,7.22,2.29,10.84s-.08,7.51.52,11.14c.6,3.62-.26,7.47.25,11.12.51,3.63,1.99,7.14,2.39,10.81.4,3.65.98,7.29,1.27,10.97.28,3.65-.98,7.4-.82,11.1.14,3.27-1.2,6.27-1.61,9.53-.41,3.32-.41,5.74-2.21,8.56-2.72,4.26-4.11,9.05-6.38,13.57-1.37,2.72-4.14,5.04-4.05,8.08.1,2.98-.93,6.58-.25,9.47.81,3.44,7.03,5.42,8.07,8.8s-1.16,7.79.08,11.1c1.25,3.3,1.86,6.96,3.32,10.18,1.46,3.22,3.95,6.01,5.61,9.12s2.72,6.66,4.58,9.67,2.98,6.66,5.02,9.54c2.05,2.88,7.59,3.13,9.83,5.87,2.5,3.06,4.05,7.16,7.27,9.47,3.36,2.41,7.1,5.92,11.21,5.76,3.81-.15,6.74-3.58,9.26-5.92,2.41-2.24,5.16-4.82,6.55-8.27,1.27-3.13.3-7.08.87-10.59.57-3.53-1.21-6.92-1.22-10.25,0-3.46,4.7-6.95,4.63-10.4s-3.5-6.8-3.64-10.25c-.14-3.45,1.9-7,1.7-10.45s-1.72-6.81-1.98-10.24-2.84-6.65-3.17-10.08c-.34-3.44,4.12-7.37,3.72-10.8s-4.98-6.33-5.44-9.75c-.46-3.42.42-7.01-.11-10.42s-1.08-6.81-1.67-10.21c-.6-3.4.16-7.04-.49-10.44-.66-3.39-2.53-6.53-3.25-9.91s-.99-6.84-1.77-10.21-1.81-6.65-2.67-10c-.84-3.35,1.47-7.55.55-10.87s-7.2-5.14-8.17-8.46c-1.05-3.59.42-8.41,2.09-11.75,2.06-4.1,6.44-5.45,11.25-5.34,4.2.09,8.69.2,12.68-.2,3.2-.32,7.34,1.22,9.91-.62,2.52-1.8,5.4-4.58,7.09-7.29,1.66-2.68.28-6.96.92-10,.65-3.12,3.24-6.18,3.08-9.35-.15-3.14-.94-6.48-1.62-9.59-.67-3.09-5.69-5-6.61-8-1.05-3.41-1.49-6.91-2.69-10.28-1.19-3.37-.48-7.39-1.79-10.72-1.31-3.32-2.79-6.57-4.19-9.85s-4.95-5.6-6.41-8.86-1.91-6.95-3.41-10.19c-1.49-3.24.22-7.98-1.29-11.22s-5.05-5.53-6.54-8.77c-1.5-3.24-1.51-7.16-2.97-10.41-1.47-3.26-4.61-5.77-6.01-9.05-1.4-3.29-3.04-6.49-4.37-9.81-1.32-3.32-3.01-6.54-4.21-9.9-1.21-3.37-2.28-6.82-3.33-10.23-1.06-3.41-2.85-6.69-3.74-10.15s-2.48-6.89-3.17-10.39c-.68-3.49,2.04-7.62,1.57-11.18-.47-3.63-4.18-6.9-4.5-10.47-.33-3.64,3.53-7.58,3.31-11.15-.22-3.65-4.3-7.06-4.46-10.64-.16-3.64,1.14-7.31.99-10.89-.15-3.62,1.98-7.35,1.79-10.93-.2-3.62-4.67-6.9-4.97-10.48-.3-3.6,2.38-7.44,1.93-11.02-.46-3.56-1.63-7.02-2.3-10.57-.67-3.52-2.33-6.76-3.27-10.28-.92-3.44-3.44-6.24-4.67-9.69-1.18-3.34.19-7.62-1.33-10.98-1.45-3.22-.63-7.76-2.43-11.01-2.14-3.94-5.77-9.08-9.76-11.02-4.67-2.26-10.07,3.48-14.3,6.48s-8.25,5.54-10.39,10.27c-1.4,3.08-.16,6.93-1.11,10.28-.93,3.24-5.06,5.7-5.62,9.14-.55,3.33.06,6.88-.19,10.35-.24,3.38.17,6.79.17,10.25s1.12,6.73,1.32,10.18c.2,3.41-.39,6.85-.03,10.27s-2.31,7.24-1.82,10.63c.5,3.43,1.22,6.87,1.81,10.22.6,3.43,4.7,6.17,5.35,9.48.68,3.44-2.53,7.62-1.81,10.89h0Z"/>
  <path class="cls-5" d="m406.5,332.35c1.95-2.15,3.09-4.69,4.18-7.36,1.04-2.58,2.43-5.2,2.43-8.12,0-3.31-.99-6.49-2.29-9.37-1.35-2.98-3.45-5.59-5.89-7.84s-5.8-3.02-9.04-4.25c-3.12-1.19-6.06-2.21-9.66-2.21-3.13,0-5.87.45-8.66,1.37-2.89.95-6.2,1.23-8.53,2.98-2.35,1.77-4,4.31-5.57,6.71-1.54,2.36-2.34,4.93-2.94,7.73,1.88,2.85,3.99,5.35,6.53,7.7,2.52,2.33,4.68,5.3,7.8,7.05,3.02,1.69,6.34,3.57,9.85,4.63,3.31,1,7.36-.25,11.08.12,3.45.34,6.95,1.08,10.7.84h0Z"/>
</svg>