<?xml version="1.0" encoding="utf-8"?>
<!-- Generator: Adobe Illustrator 27.1.1, SVG Export Plug-In . SVG Version: 6.00 Build 0)  -->
<svg version="1.1" id="Livello_1" xmlns="http://www.w3.org/2000/svg" xmlns:xlink="http://www.w3.org/1999/xlink" x="0px" y="0px"
	 viewBox="0 0 180 180" style="enable-background:new 0 0 180 180;" xml:space="preserve">
<style type="text/css">
	.st0{fill:#6B728E;}
</style>
<path class="st0" d="M75.9,25.3C34,25.4,0,59.3,0,101.2v5.6h0.1c0,0.9-0.1,1.9-0.1,2.8c0,29.9,18,45,53.4,45
	c10.4,0.4,20.7-1.5,30.3-5.5c4.1,3.5,9.3,5.5,14.7,5.5h28.1c29.5,0,53.4-23.9,53.4-53.4c0-41.9-34-75.9-75.9-75.9
	C104,25.3,75.9,25.3,75.9,25.3z M75.9,30.9H104c38.8,0,70.3,31.5,70.3,70.3c0,26.4-21.4,47.8-47.8,47.8H98.4
	c-9.3,0-16.9-7.5-17-16.8s7.5-16.9,16.8-17l50.5,5.6c0.1,0,0.2,0,0.3,0c10.3,0,16.9-8.8,16.9-22.5h-5.6c0,10.5-4.1,16.8-11.1,16.9
	l-42.4-4.7c0-0.3,0-0.6,0-0.9c0-10.3-2-23.2-17.4-32.8l-6.6-16c-1.2-4.4-5.1-7.4-9.7-7.4c-6,0-9.8,2.5-11.1,7.6l-4.9,12.1h-7.4
	L44.9,61c-1.3-5-5.1-7.6-11.1-7.6c-4.5,0-8.5,3-9.7,7.4l-6.6,16c-4.3,2.7-7.5,5.6-9.9,8.6C14.9,53.6,43.2,31,75.9,30.9z M34.3,59.1
	c4,0.1,4.7,1.7,5.2,3.5c0,0.1,0.1,0.2,0.1,0.4l5.6,14c0.4,1.1,1.5,1.8,2.6,1.8H59c1.2,0,2.2-0.7,2.6-1.8l5.6-14.1
	c0-0.1,0.1-0.2,0.1-0.4c0.4-1.8,1.2-3.3,5.2-3.5l-2.1,12.1c-0.6,2.6,0,5.4,1.7,7.5c1.4,1.8,3.6,2.9,6,2.9h8.2
	c13.1,8.2,14.9,18.8,14.9,28.1c0,0.1,0,0.2,0,0.3l-2.5-0.3c-0.1,0-0.2,0-0.3,0c-12.4,0-22.5,10.1-22.5,22.5c0,4.5,1.3,8.9,3.9,12.6
	c-8.4,3.2-17.4,4.6-26.4,4.3c-14.7,0-25.8-2.7-33.7-8.1l6.8-3.4l-2.5-5l-9,4.5c-1.4-1.5-2.7-3.1-3.7-4.8h14.1v-5.6h-17
	c-0.6-1.6-1.1-3.3-1.5-5.1l18.1,2.3l0.7-5.6L6,115.7c-0.2-1.9-0.3-3.9-0.3-6c0-9.4,1.8-20,14.9-28.1h8.2c2.3,0,4.5-1.1,6-3
	c1.6-2.1,2.3-4.8,1.7-7.3L34.3,59.1z M77.6,63L83,75.9h-4.8c-0.6,0-1.2-0.3-1.6-0.8c-0.6-0.8-0.8-1.9-0.6-2.9L77.6,63z M29.3,63
	l1.6,9.3c0.2,0.9,0,2-0.6,2.7c-0.4,0.5-1,0.8-1.6,0.8h-4.8L29.3,63z M25.3,106.9v5.6c4.6,0,8.4,2.6,8.4,5.6h5.6
	C39.4,111.9,33.1,106.9,25.3,106.9z M81.6,106.9c-7.8,0-14.1,5-14.1,11.2h5.6c0-3,3.9-5.6,8.4-5.6L81.6,106.9L81.6,106.9z
	 M50.5,115.3c-3.1,0-5.6,2.6-5.5,5.7c0,1.2,0.4,2.3,1.1,3.3l2.8,3.7c0.2,0.2,0.3,0.4,0.5,0.6l-6,4l3.1,4.7l6.9-4.6l6.9,4.6l3.1-4.7
	l-6-4c0.2-0.2,0.4-0.4,0.5-0.6l2.8-3.8c1.9-2.5,1.4-6-1.1-7.9c-1-0.7-2.2-1.1-3.4-1.1h-5.7C50.6,115.3,50.6,115.3,50.5,115.3z
	 M50.6,120.9L50.6,120.9h5.6l-2.8,3.7L50.6,120.9z"/>
</svg>
