<?xml version="1.0" encoding="UTF-8"?>
<svg id="Livello_1" data-name="Livello 1" xmlns="http://www.w3.org/2000/svg" viewBox="0 0 2097 1426.87">
  <defs>
    <style>
      .cls-1 {
        fill: #50577a;
        isolation: isolate;
        opacity: .75;
      }
    </style>
  </defs>
  <path class="cls-1" d="m13.4,85.66h.1v6.29s-.08-.03-.11-.05c-4.43-2.1-8.89-4.17-13.39-6.23h13.4Z"/>
  <path class="cls-1" d="m2097,1424.67v2.2h-2.2s-.2-.7-.7-2.1c-.01-.03-.02-.06-.03-.1h2.93Z"/>
  <path class="cls-1" d="m2014.7,0v1033.3c-181.34-1.65-628.92-23.72-967.9-189.71-77.9-38.14-161.08-65.68-245.15-85.19-63.11-14.65-126.73-24.77-189-31.44,95.71-63.82,204.72-118.62,343.39-153.75,79.56-20.16,168.89-33.83,271.06-39.02,88.54-4.5,168.89-20.48,241.55-44.85.05-.02.1-.03.15-.05C1757.86,392.49,1926.84,163.74,2014.7,0Z"/>
  <path class="cls-1" d="m2097,83.77v4.9h-4.63c.14-.44.27-.84.38-1.21.64-1.99,1-3.21,1.12-3.59.01-.04.02-.08.03-.1h3.1Z"/>
</svg>