<?xml version="1.0" encoding="utf-8"?>
<!-- Generator: Adobe Illustrator 27.1.1, SVG Export Plug-In . SVG Version: 6.00 Build 0)  -->
<svg version="1.1" id="Livello_1" xmlns="http://www.w3.org/2000/svg" xmlns:xlink="http://www.w3.org/1999/xlink" x="0px" y="0px"
	 viewBox="0 0 2097 1426.9" style="enable-background:new 0 0 2097 1426.9;" xml:space="preserve">
<style type="text/css">
	.st0{opacity:0.75;fill:#50577A;enable-background:new    ;}
	.st1{opacity:0.75;fill:#70799B;enable-background:new    ;}
</style>
<path class="st0" d="M13.4,85.7h0.1V92c0,0-0.1,0-0.1-0.1C9,89.8,4.5,87.7,0,85.7H13.4L13.4,85.7z"/>
<path class="st0" d="M2097,1424.7v2.2h-2.2c0,0-0.2-0.7-0.7-2.1v-0.1H2097z"/>
<path class="st1" d="M0,0v1033.3c181.3-1.7,628.9-23.7,967.9-189.7c77.9-38.1,161.1-65.7,245.2-85.2c63.1-14.7,126.7-24.8,189-31.4
	c-95.7-63.8-204.7-118.6-343.4-153.8c-79.6-20.2-168.9-33.8-271.1-39c-88.5-4.5-168.9-20.5-241.6-44.9c-0.1,0-0.1,0-0.2,0
	C256.9,392.5,87.9,163.7,0,0z"/>
<path class="st0" d="M2097,83.8v4.9h-4.6c0.1-0.4,0.3-0.8,0.4-1.2c0.6-2,1-3.2,1.1-3.6v-0.1L2097,83.8L2097,83.8z"/>
</svg>
