<?xml version="1.0" encoding="utf-8"?>
<!-- Generator: Adobe Illustrator 27.1.1, SVG Export Plug-In . SVG Version: 6.00 Build 0)  -->
<svg version="1.1" id="Livello_1" xmlns="http://www.w3.org/2000/svg" xmlns:xlink="http://www.w3.org/1999/xlink" x="0px" y="0px"
	 viewBox="0 0 848.5 848.5" style="enable-background:new 0 0 848.5 848.5;" xml:space="preserve">
<style type="text/css">
	.st0{fill:#6B728E;}
	.st1{clip-path:url(#SVGID_00000116941454002365531320000003725179697082901385_);}
	.st2{opacity:0.496;}
	.st3{opacity:0.498;clip-path:url(#SVGID_00000149366286037074494780000006597684867750876327_);}
	.st4{fill:none;}
	.st5{opacity:0.498;clip-path:url(#SVGID_00000031928521735010482420000017598627067596261805_);}
	.st6{fill:#FFFFFF;}
</style>
<g transform="translate(-55.736 -4460.028)">
	<path class="st0" d="M893.7,4894.9L729.5,5059l-238.9,238.9c-5.9,5.9-15.3,5.9-21.2,0l-403-403c-5.9-5.9-5.9-15.4,0-21.2l403-403.1
		c5.9-5.9,15.4-5.9,21.2,0l403.1,403.1C899.5,4879.5,899.5,4889,893.7,4894.9z"/>
	<path class="st0" d="M72.7,4884.3L480,4477l407.3,407.3L480,5291.6L72.7,4884.3z"/>
</g>
<g>
	<g>
		<defs>
			<rect id="SVGID_1_" x="-3056.8" y="-2978.1" width="576" height="576"/>
		</defs>
		<clipPath id="SVGID_00000038394018354956117400000007923989103540288394_">
			<use xlink:href="#SVGID_1_"  style="overflow:visible;"/>
		</clipPath>
		
			<g transform="rotate(-45 -4931.599 2721.558)" style="clip-path:url(#SVGID_00000038394018354956117400000007923989103540288394_);">
			<g class="st2">
				<g>
					<g>
						<defs>
							<rect id="SVGID_00000059272215607931918140000004378593175208580017_" x="-38.7" y="8873.6" width="986.6" height="1612"/>
						</defs>
						<clipPath id="SVGID_00000134928439091536114820000014606054050732620981_">
							<use xlink:href="#SVGID_00000059272215607931918140000004378593175208580017_"  style="overflow:visible;"/>
						</clipPath>
						
							<g transform="translate(-175.702 4593.177)" style="opacity:0.498;clip-path:url(#SVGID_00000134928439091536114820000014606054050732620981_);">
							<path class="st4" d="M0,986.6"/>
							<path class="st4" d="M0,986.6"/>
							<path class="st4" d="M0,986.6"/>
							<path class="st4" d="M0,986.6"/>
							<path class="st4" d="M0,986.6"/>
							<path class="st4" d="M0,986.6"/>
							<path class="st4" d="M0,986.6"/>
							<path class="st4" d="M0,986.6"/>
							<path class="st4" d="M0,986.6"/>
							<path class="st4" d="M0,986.6"/>
							<path class="st4" d="M0,986.6"/>
							<path class="st4" d="M0,986.6"/>
							<path class="st4" d="M0,986.6"/>
							<path class="st4" d="M0,986.6"/>
							<path class="st4" d="M0,986.6"/>
							<path class="st4" d="M0,986.6"/>
							<path class="st4" d="M0,986.6"/>
							<path class="st4" d="M0,986.6"/>
							<path class="st4" d="M0,986.6"/>
							<path class="st4" d="M0,986.6"/>
							<path class="st4" d="M0,986.6"/>
							<path class="st4" d="M0,986.6"/>
							<path class="st4" d="M0,986.6"/>
							<path class="st4" d="M0,986.6"/>
							<path class="st4" d="M0,986.6"/>
							<path class="st4" d="M0,986.6"/>
							<path class="st4" d="M0,986.6"/>
							<path class="st4" d="M0,986.6"/>
							<path class="st4" d="M0,986.6"/>
							<path class="st4" d="M0,986.6"/>
							<path class="st4" d="M0,986.6"/>
							<path class="st4" d="M0,986.6"/>
							<path class="st4" d="M0,986.6"/>
							<path class="st4" d="M0,986.6"/>
							<path class="st4" d="M0,986.6"/>
							<path class="st4" d="M0,986.6"/>
							<path class="st4" d="M0,986.6"/>
							<path class="st4" d="M0,986.6"/>
							<path class="st4" d="M0,986.6"/>
							<path class="st4" d="M0,986.6"/>
							<path class="st4" d="M0,986.6"/>
							<path class="st4" d="M0,986.6"/>
							<path class="st4" d="M0,986.6"/>
							<path class="st4" d="M0,986.6"/>
							<path class="st4" d="M0,986.6"/>
							<path class="st4" d="M0,986.6"/>
							<path class="st4" d="M0,986.6"/>
							<path class="st4" d="M0,986.6"/>
							<path class="st4" d="M0,986.6"/>
							<g>
								<path class="st4" d="M0,986.6"/>
								<path class="st4" d="M0,986.6"/>
							</g>
							<g>
								<path class="st4" d="M0,986.6"/>
								<path class="st4" d="M0,986.6"/>
							</g>
							<g>
								<path class="st4" d="M0,986.6"/>
								<path class="st4" d="M0,986.6"/>
							</g>
							<g>
								<path class="st4" d="M0,986.6"/>
								<path class="st4" d="M0,986.6"/>
							</g>
							<g>
								<path class="st4" d="M0,986.6"/>
								<path class="st4" d="M0,986.6"/>
							</g>
							<g>
								<path class="st4" d="M0,986.6"/>
								<path class="st4" d="M0,986.6"/>
							</g>
							<g>
								<path class="st4" d="M0,986.6"/>
								<path class="st4" d="M0,986.6"/>
							</g>
							<g>
								<path class="st4" d="M0,986.6"/>
								<path class="st4" d="M0,986.6"/>
							</g>
							<g>
								<path class="st4" d="M0,986.6"/>
								<path class="st4" d="M0,986.6"/>
							</g>
							<g>
								<path class="st4" d="M0,986.6"/>
								<path class="st4" d="M0,986.6"/>
							</g>
							<g>
								<path class="st4" d="M0,986.6"/>
								<path class="st4" d="M0,986.6"/>
							</g>
							<g>
								<path class="st4" d="M0,986.6"/>
								<path class="st4" d="M0,986.6"/>
							</g>
							<g>
								<path class="st4" d="M0,986.6"/>
								<path class="st4" d="M0,986.6"/>
							</g>
							<g>
								<path class="st4" d="M0,986.6"/>
								<path class="st4" d="M0,986.6"/>
							</g>
							<g>
								<path class="st4" d="M0,986.6"/>
								<path class="st4" d="M0,986.6"/>
							</g>
							<g>
								<path class="st4" d="M0,986.6"/>
								<path class="st4" d="M0,986.6"/>
							</g>
							<g>
								<path class="st4" d="M0,986.6"/>
								<path class="st4" d="M0,986.6"/>
							</g>
							<g>
								<path class="st4" d="M0,986.6"/>
								<path class="st4" d="M0,986.6"/>
							</g>
							<g>
								<path class="st4" d="M0,986.6"/>
								<path class="st4" d="M0,986.6"/>
							</g>
							<g>
								<path class="st4" d="M0,986.6"/>
								<path class="st4" d="M0,986.6"/>
							</g>
							<g>
								<path class="st4" d="M0,986.6"/>
								<path class="st4" d="M0,986.6"/>
							</g>
							<g>
								<path class="st4" d="M0,986.6"/>
								<path class="st4" d="M0,986.6"/>
							</g>
							<g>
								<path class="st4" d="M0,986.6"/>
								<path class="st4" d="M0,986.6"/>
							</g>
							<g>
								<path class="st4" d="M0,986.6"/>
								<path class="st4" d="M0,986.6"/>
							</g>
							<g>
								<path class="st4" d="M0,986.6"/>
								<path class="st4" d="M0,986.6"/>
							</g>
							<g>
								<path class="st4" d="M0,986.6"/>
								<path class="st4" d="M0,986.6"/>
							</g>
							<g>
								<path class="st4" d="M0,986.6"/>
								<path class="st4" d="M0,986.6"/>
							</g>
							<g>
								<path class="st4" d="M0,986.6"/>
								<path class="st4" d="M0,986.6"/>
							</g>
							<g>
								<path class="st4" d="M0,986.6"/>
								<path class="st4" d="M0,986.6"/>
							</g>
							<g>
								<path class="st4" d="M0,986.6"/>
								<path class="st4" d="M0,986.6"/>
							</g>
							<g>
								<path class="st4" d="M0,986.6"/>
								<path class="st4" d="M0,986.6"/>
							</g>
							<g>
								<path class="st4" d="M0,986.6"/>
								<path class="st4" d="M0,986.6"/>
							</g>
							<g>
								<path class="st4" d="M0,986.6"/>
								<path class="st4" d="M0,986.6"/>
							</g>
							<g>
								<path class="st4" d="M0,986.6"/>
								<path class="st4" d="M0,986.6"/>
							</g>
							<g>
								<path class="st4" d="M0,986.6"/>
								<path class="st4" d="M0,986.6"/>
							</g>
							<g>
								<path class="st4" d="M0,986.6"/>
								<path class="st4" d="M0,986.6"/>
							</g>
							<g>
								<path class="st4" d="M0,986.6"/>
								<path class="st4" d="M0,986.6"/>
							</g>
							<g>
								<path class="st4" d="M0,986.6"/>
								<path class="st4" d="M0,986.6"/>
							</g>
							<g>
								<path class="st4" d="M0,986.6"/>
								<path class="st4" d="M0,986.6"/>
							</g>
							<g>
								<path class="st4" d="M0,986.6"/>
								<path class="st4" d="M0,986.6"/>
							</g>
							<g>
								<path class="st4" d="M0,986.6"/>
								<path class="st4" d="M0,986.6"/>
							</g>
							<g>
								<path class="st4" d="M0,986.6"/>
								<path class="st4" d="M0,986.6"/>
							</g>
							<g>
								<path class="st4" d="M0,986.6"/>
								<path class="st4" d="M0,986.6"/>
							</g>
							<g>
								<path class="st4" d="M0,986.6"/>
								<path class="st4" d="M0,986.6"/>
							</g>
							<g>
								<path class="st4" d="M0,986.6"/>
								<path class="st4" d="M0,986.6"/>
							</g>
							<g>
								<path class="st4" d="M0,986.6"/>
								<path class="st4" d="M0,986.6"/>
							</g>
							<g>
								<path class="st4" d="M0,986.6"/>
								<path class="st4" d="M0,986.6"/>
							</g>
							<g>
								<path class="st4" d="M0,986.6"/>
								<path class="st4" d="M0,986.6"/>
							</g>
						</g>
					</g>
				</g>
				<g>
					<g>
						<defs>
							<rect id="SVGID_00000123403457641417077870000002693795374004807089_" x="103.3" y="9013.6" width="986.6" height="1612"/>
						</defs>
						<clipPath id="SVGID_00000123443297522966095560000004798082486668782733_">
							<use xlink:href="#SVGID_00000123403457641417077870000002693795374004807089_"  style="overflow:visible;"/>
						</clipPath>
						
							<g transform="translate(-104.702 4663.177)" style="opacity:0.498;clip-path:url(#SVGID_00000123443297522966095560000004798082486668782733_);">
							<path class="st4" d="M0,986.6"/>
							<path class="st4" d="M0,986.6"/>
							<path class="st4" d="M0,986.6"/>
							<path class="st4" d="M0,986.6"/>
							<path class="st4" d="M0,986.6"/>
							<path class="st4" d="M0,986.6"/>
							<path class="st4" d="M0,986.6"/>
							<path class="st4" d="M0,986.6"/>
							<path class="st4" d="M0,986.6"/>
							<path class="st4" d="M0,986.6"/>
							<path class="st4" d="M0,986.6"/>
							<path class="st4" d="M0,986.6"/>
							<path class="st4" d="M0,986.6"/>
							<path class="st4" d="M0,986.6"/>
							<path class="st4" d="M0,986.6"/>
							<path class="st4" d="M0,986.6"/>
							<path class="st4" d="M0,986.6"/>
							<path class="st4" d="M0,986.6"/>
							<path class="st4" d="M0,986.6"/>
							<path class="st4" d="M0,986.6"/>
							<path class="st4" d="M0,986.6"/>
							<path class="st4" d="M0,986.6"/>
							<path class="st4" d="M0,986.6"/>
							<path class="st4" d="M0,986.6"/>
							<path class="st4" d="M0,986.6"/>
							<path class="st4" d="M0,986.6"/>
							<path class="st4" d="M0,986.6"/>
							<path class="st4" d="M0,986.6"/>
							<path class="st4" d="M0,986.6"/>
							<path class="st4" d="M0,986.6"/>
							<path class="st4" d="M0,986.6"/>
							<path class="st4" d="M0,986.6"/>
							<path class="st4" d="M0,986.6"/>
							<path class="st4" d="M0,986.6"/>
							<path class="st4" d="M0,986.6"/>
							<path class="st4" d="M0,986.6"/>
							<path class="st4" d="M0,986.6"/>
							<path class="st4" d="M0,986.6"/>
							<path class="st4" d="M0,986.6"/>
							<path class="st4" d="M0,986.6"/>
							<path class="st4" d="M0,986.6"/>
							<path class="st4" d="M0,986.6"/>
							<path class="st4" d="M0,986.6"/>
							<path class="st4" d="M0,986.6"/>
							<path class="st4" d="M0,986.6"/>
							<path class="st4" d="M0,986.6"/>
							<path class="st4" d="M0,986.6"/>
							<path class="st4" d="M0,986.6"/>
							<path class="st4" d="M0,986.6"/>
							<g>
								<path class="st4" d="M0,986.6"/>
								<path class="st4" d="M0,986.6"/>
							</g>
							<g>
								<path class="st4" d="M0,986.6"/>
								<path class="st4" d="M0,986.6"/>
							</g>
							<g>
								<path class="st4" d="M0,986.6"/>
								<path class="st4" d="M0,986.6"/>
							</g>
							<g>
								<path class="st4" d="M0,986.6"/>
								<path class="st4" d="M0,986.6"/>
							</g>
							<g>
								<path class="st4" d="M0,986.6"/>
								<path class="st4" d="M0,986.6"/>
							</g>
							<g>
								<path class="st4" d="M0,986.6"/>
								<path class="st4" d="M0,986.6"/>
							</g>
							<g>
								<path class="st4" d="M0,986.6"/>
								<path class="st4" d="M0,986.6"/>
							</g>
							<g>
								<path class="st4" d="M0,986.6"/>
								<path class="st4" d="M0,986.6"/>
							</g>
							<g>
								<path class="st4" d="M0,986.6"/>
								<path class="st4" d="M0,986.6"/>
							</g>
							<g>
								<path class="st4" d="M0,986.6"/>
								<path class="st4" d="M0,986.6"/>
							</g>
							<g>
								<path class="st4" d="M0,986.6"/>
								<path class="st4" d="M0,986.6"/>
							</g>
							<g>
								<path class="st4" d="M0,986.6"/>
								<path class="st4" d="M0,986.6"/>
							</g>
							<g>
								<path class="st4" d="M0,986.6"/>
								<path class="st4" d="M0,986.6"/>
							</g>
							<g>
								<path class="st4" d="M0,986.6"/>
								<path class="st4" d="M0,986.6"/>
							</g>
							<g>
								<path class="st4" d="M0,986.6"/>
								<path class="st4" d="M0,986.6"/>
							</g>
							<g>
								<path class="st4" d="M0,986.6"/>
								<path class="st4" d="M0,986.6"/>
							</g>
							<g>
								<path class="st4" d="M0,986.6"/>
								<path class="st4" d="M0,986.6"/>
							</g>
							<g>
								<path class="st4" d="M0,986.6"/>
								<path class="st4" d="M0,986.6"/>
							</g>
							<g>
								<path class="st4" d="M0,986.6"/>
								<path class="st4" d="M0,986.6"/>
							</g>
							<g>
								<path class="st4" d="M0,986.6"/>
								<path class="st4" d="M0,986.6"/>
							</g>
							<g>
								<path class="st4" d="M0,986.6"/>
								<path class="st4" d="M0,986.6"/>
							</g>
							<g>
								<path class="st4" d="M0,986.6"/>
								<path class="st4" d="M0,986.6"/>
							</g>
							<g>
								<path class="st4" d="M0,986.6"/>
								<path class="st4" d="M0,986.6"/>
							</g>
							<g>
								<path class="st4" d="M0,986.6"/>
								<path class="st4" d="M0,986.6"/>
							</g>
							<g>
								<path class="st4" d="M0,986.6"/>
								<path class="st4" d="M0,986.6"/>
							</g>
							<g>
								<path class="st4" d="M0,986.6"/>
								<path class="st4" d="M0,986.6"/>
							</g>
							<g>
								<path class="st4" d="M0,986.6"/>
								<path class="st4" d="M0,986.6"/>
							</g>
							<g>
								<path class="st4" d="M0,986.6"/>
								<path class="st4" d="M0,986.6"/>
							</g>
							<g>
								<path class="st4" d="M0,986.6"/>
								<path class="st4" d="M0,986.6"/>
							</g>
							<g>
								<path class="st4" d="M0,986.6"/>
								<path class="st4" d="M0,986.6"/>
							</g>
							<g>
								<path class="st4" d="M0,986.6"/>
								<path class="st4" d="M0,986.6"/>
							</g>
							<g>
								<path class="st4" d="M0,986.6"/>
								<path class="st4" d="M0,986.6"/>
							</g>
							<g>
								<path class="st4" d="M0,986.6"/>
								<path class="st4" d="M0,986.6"/>
							</g>
							<g>
								<path class="st4" d="M0,986.6"/>
								<path class="st4" d="M0,986.6"/>
							</g>
							<g>
								<path class="st4" d="M0,986.6"/>
								<path class="st4" d="M0,986.6"/>
							</g>
							<g>
								<path class="st4" d="M0,986.6"/>
								<path class="st4" d="M0,986.6"/>
							</g>
							<g>
								<path class="st4" d="M0,986.6"/>
								<path class="st4" d="M0,986.6"/>
							</g>
							<g>
								<path class="st4" d="M0,986.6"/>
								<path class="st4" d="M0,986.6"/>
							</g>
							<g>
								<path class="st4" d="M0,986.6"/>
								<path class="st4" d="M0,986.6"/>
							</g>
							<g>
								<path class="st4" d="M0,986.6"/>
								<path class="st4" d="M0,986.6"/>
							</g>
							<g>
								<path class="st4" d="M0,986.6"/>
								<path class="st4" d="M0,986.6"/>
							</g>
							<g>
								<path class="st4" d="M0,986.6"/>
								<path class="st4" d="M0,986.6"/>
							</g>
							<g>
								<path class="st4" d="M0,986.6"/>
								<path class="st4" d="M0,986.6"/>
							</g>
							<g>
								<path class="st4" d="M0,986.6"/>
								<path class="st4" d="M0,986.6"/>
							</g>
							<g>
								<path class="st4" d="M0,986.6"/>
								<path class="st4" d="M0,986.6"/>
							</g>
							<g>
								<path class="st4" d="M0,986.6"/>
								<path class="st4" d="M0,986.6"/>
							</g>
							<g>
								<path class="st4" d="M0,986.6"/>
								<path class="st4" d="M0,986.6"/>
							</g>
							<g>
								<path class="st4" d="M0,986.6"/>
								<path class="st4" d="M0,986.6"/>
							</g>
						</g>
					</g>
				</g>
			</g>
		</g>
	</g>
</g>
<g transform="translate(-55.736 -4460.028)">
	<path class="st6" d="M115.8,4868.4l354.8-397.9c5.2-5.8,13.5-5.8,18.7,0l354.8,397.9c5.2,5.8,5.2,15.1,0,21l-354.8,397.9
		c-5.2,5.8-13.5,5.8-18.7,0l-354.8-397.9C110.7,4883.5,110.7,4874.2,115.8,4868.4z"/>
	<path class="st6" d="M121.4,4878.8l358.6-402l358.6,402.1l-358.6,402L121.4,4878.8z"/>
</g>
<path class="st0" d="M673.8,599L434.9,837.9c-5.9,5.9-15.3,5.9-21.2,0L174.8,599c0.8-3,1.6-6,2.6-8.9c0.4-1.4,0.9-2.8,1.3-4.1
	c0.8-2.3,1.6-4.6,2.5-6.9c32.6-83.8,129.1-144.5,243.1-144.5c113.9,0,210.4,60.7,243.1,144.5c0.9,2.3,1.7,4.6,2.5,6.9
	c0.5,1.4,0.9,2.7,1.4,4.1C672.2,593,673,596,673.8,599z"/>
<path class="st0" d="M121.5,452.7c17.4,46.7,34.7,93.4,52.1,140.1c41.7-32.6,83.4-65.2,125.2-97.8
	C239.7,480.9,180.6,466.8,121.5,452.7z"/>
<path class="st0" d="M728.1,447.5c-19.4,47.9-38.8,95.8-58.2,143.7c-48.9-30.1-97.7-60.3-146.6-90.4
	C591.5,483,659.8,465.2,728.1,447.5z"/>
</svg>
