<?xml version="1.0" encoding="utf-8"?>
<!-- Generator: Adobe Illustrator 27.1.1, SVG Export Plug-In . SVG Version: 6.00 Build 0)  -->
<svg version="1.1" id="Livello_1" xmlns="http://www.w3.org/2000/svg" xmlns:xlink="http://www.w3.org/1999/xlink" x="0px" y="0px"
	 viewBox="0 0 180 180" style="enable-background:new 0 0 180 180;" xml:space="preserve">
<style type="text/css">
	.st0{fill:#6B728E;}
</style>
<path class="st0" d="M64.7,0c-3.1,0.1-5.5,2.6-5.6,5.6l-5.4,18.5c-2.6,4.9-4.5,10.2-5.8,15.6c-1.3,4.8-8.2,20.2-8.3,20.4
	c-0.2,0.4-0.2,0.8-0.2,1.2c0,2.3,0.2,4.6,0.7,6.9c0.9,4.5,2.9,8.7,5.8,12.3c0.5,0.6,0.9,1.1,1.4,1.7c3.4,3.7,7.8,6.3,12.7,7.4
	L36.7,127c-4.1,6.3-6.1,13.7-5.7,21.2c0.2,3.2,0.9,6.3,2,9.4c-4.3-0.4-7.6-4-7.6-8.4v-62c0-4.7-3.8-8.4-8.4-8.4
	c-4.7,0-8.4,3.8-8.4,8.4v64.7c0,12.4,10.1,22.5,22.5,22.5h15.1c2.2,1.5,4.6,2.7,7.1,3.5c3.7,1.4,7.6,2.1,11.6,2.1h11.2h8.5
	c1,0,1.9-0.2,2.8-0.5v0.5h11h8.5c0.9,0,1.9-0.2,2.8-0.5v0.5h5.6c3.9,0,7.9-0.7,11.6-2.1c12.7-4.6,21.4-16.4,22.1-29.8
	c0.4-7.5-1.6-14.9-5.7-21.2L120,89.5c5.6-1.4,10.5-4.5,14.1-9.1c2.9-3.6,4.9-7.8,5.8-12.3c0.5-2.3,0.7-4.6,0.7-6.9
	c0-0.4-0.1-0.8-0.2-1.2c-0.1-0.2-7-15.6-8.3-20.4c-1.2-5.4-3.2-10.6-5.8-15.6l-5.4-18.5c-0.1-3.1-2.6-5.5-5.6-5.6
	c-1.3,0-2.5,0.5-3.5,1.3c-0.1,0.1-0.2,0.1-0.2,0.2L98.1,16c-0.5,0.6-1.3,0.9-2,0.9H84c-0.8,0-1.5-0.3-2-0.9L68.4,1.6
	c-0.1-0.1-0.2-0.2-0.2-0.2C67.2,0.5,66,0,64.7,0z M112.3,9c-0.3,3.8-1.1,7.6-2.1,11.3c-0.7,1.8-0.5,3.8,0.5,5.4
	c1,1.5,2.7,2.4,4.5,2.4h6.9c2,4.2,3.6,8.5,4.6,13.1c0.8,2.9,3,8.3,5.1,13.2l-14.5,4.8l1.8,5.3l15-5c0.3,0.6,0.8,1.9,1,2.2
	c0,1-0.1,1.9-0.2,2.9h-16.6v5.6h15.3c-0.6,1.7-1.5,3.4-2.5,4.9l-11.8-4.7l-2.1,5.2l10,4c-3.3,2.8-7.4,4.5-11.7,4.7h-8.4V90h6.9
	l24.8,39.9c3.4,5.3,5.2,11.5,4.9,17.8c-0.6,11.2-7.8,21-18.4,24.9c-2.5,0.9-5.1,1.5-7.8,1.7c5.3-6.2,9.4-17.1,9.4-30.8h-5.6
	c0,18.9-8.3,30.9-14.1,30.9h-8.5h-2.8c-1.5,0-2.7-1.2-2.7-2.7v-2.6c0-0.9,0.5-1.7,1.2-2.2c6.5-6,10.2-14.5,10.1-23.4h-5.6
	c0.1,7.1-2.8,14-7.9,18.9c-0.2,0.1-0.4,0.3-0.6,0.5c-0.2-0.2-0.4-0.3-0.6-0.5c-5.1-5-8-11.8-7.9-18.9h-5.6
	c-0.1,8.9,3.5,17.4,10.1,23.4c0.7,0.5,1.1,1.3,1.2,2.2v2.6c0,1.5-1.2,2.7-2.7,2.7h-8.5h-2.8c-5.7,0-14.1-12.1-14.1-30.9h-5.6
	c0,13.8,4,24.7,9.4,30.9c-2.7-0.2-5.3-0.7-7.8-1.7c-2.3-0.8-4.5-1.9-6.5-3.4c-3.8-2.7-6.9-6.3-8.9-10.5c-1.7-3.5-2.7-7.2-3-11.1
	c-0.3-6.3,1.4-12.6,4.9-17.8L66.3,90h6.9v-5.6h-8.4c-4.3-0.1-8.5-1.8-11.7-4.7l10-4L61,70.5l-11.8,4.7c-1-1.5-1.8-3.2-2.5-4.9H62
	v-5.6H45.2c-0.1-0.9-0.2-1.9-0.2-2.9c0.2-0.3,0.7-1.7,1-2.3l15,5l1.8-5.3l-14.5-4.8c2.1-4.9,4.3-10.3,5.1-13.2
	c1.1-4.5,2.7-8.9,4.7-13.1h6.8c1.8,0,3.5-0.9,4.5-2.4c1.1-1.6,1.3-3.6,0.5-5.3c-1.3-3.1-1.8-7.6-2.1-11.3l10.1,10.8
	c1.6,1.7,3.8,2.6,6.1,2.6h12c2.3,0,4.5-1,6.1-2.7L112.3,9z M62.6,13.6c0.4,3.1,1.1,6.4,2.2,8.9H60L62.6,13.6z M117.4,13.7l2.6,8.8
	h-4.7C116.4,19.9,117,16.7,117.4,13.7z M114.3,47.8c-1.9,0.1-3.7,1-5,2.4c-1.4,1.3-2.2,3.1-2.3,5c0,1,0.4,2,1.1,2.7s1.7,1.2,2.8,1.2
	h0.1c1.9-0.1,3.6-1,4.9-2.4l0,0c1.4-1.3,2.2-3.1,2.3-5c0-1-0.4-2-1.1-2.7C116.3,48.2,115.3,47.8,114.3,47.8z M65.7,47.8
	c-1,0-2,0.4-2.7,1.1c-0.7,0.7-1.2,1.7-1.2,2.8c0.1,1.9,1,3.7,2.4,5l0,0c1.3,1.4,3,2.2,4.9,2.3h0.1c1,0,2-0.4,2.7-1.1
	c0.7-0.7,1.2-1.7,1.2-2.8c-0.1-1.9-1-3.7-2.4-5C69.4,48.7,67.7,47.9,65.7,47.8z M87.1,56.2c-3.1,0-5.6,2.6-5.5,5.7
	c0,1.2,0.4,2.3,1.1,3.3l2.8,3.7c0.2,0.2,0.3,0.4,0.5,0.6l-6,4l3.1,4.7l6.9-4.6l6.9,4.6l3.1-4.7l-6-4c0.2-0.2,0.4-0.4,0.5-0.6
	l2.8-3.8c1.9-2.5,1.4-6-1.1-7.9c-1-0.7-2.2-1.1-3.4-1.1h-5.7C87.2,56.2,87.1,56.2,87.1,56.2z M87.2,61.9h5.6L90,65.6L87.2,61.9z
	 M16.9,84.4c0.8,0,1.5,0.3,2,0.9c0.5,0.5,0.8,1.2,0.8,2v61.9c0,7.8,6.3,14.1,14.1,14.1h1.8c1.1,2,2.5,3.9,4,5.6H31
	c-9.3,0-16.9-7.6-16.9-16.9V87.2C14.1,85.6,15.3,84.4,16.9,84.4z"/>
</svg>
